%TF.GenerationSoftware,KiCad,Pcbnew,(6.0.1)*%
%TF.CreationDate,2022-06-05T18:06:34-04:00*%
%TF.ProjectId,PCB Design,50434220-4465-4736-9967-6e2e6b696361,v1*%
%TF.SameCoordinates,Original*%
%TF.FileFunction,Legend,Top*%
%TF.FilePolarity,Positive*%
%FSLAX46Y46*%
G04 Gerber Fmt 4.6, Leading zero omitted, Abs format (unit mm)*
G04 Created by KiCad (PCBNEW (6.0.1)) date 2022-06-05 18:06:34*
%MOMM*%
%LPD*%
G01*
G04 APERTURE LIST*
%ADD10C,0.150000*%
%ADD11C,0.120000*%
%ADD12C,0.100000*%
G04 APERTURE END LIST*
D10*
X105728571Y-106242857D02*
X105814285Y-106271428D01*
X105957142Y-106271428D01*
X106014285Y-106242857D01*
X106042857Y-106214285D01*
X106071428Y-106157142D01*
X106071428Y-106100000D01*
X106042857Y-106042857D01*
X106014285Y-106014285D01*
X105957142Y-105985714D01*
X105842857Y-105957142D01*
X105785714Y-105928571D01*
X105757142Y-105900000D01*
X105728571Y-105842857D01*
X105728571Y-105785714D01*
X105757142Y-105728571D01*
X105785714Y-105700000D01*
X105842857Y-105671428D01*
X105985714Y-105671428D01*
X106071428Y-105700000D01*
X106671428Y-106214285D02*
X106642857Y-106242857D01*
X106557142Y-106271428D01*
X106500000Y-106271428D01*
X106414285Y-106242857D01*
X106357142Y-106185714D01*
X106328571Y-106128571D01*
X106300000Y-106014285D01*
X106300000Y-105928571D01*
X106328571Y-105814285D01*
X106357142Y-105757142D01*
X106414285Y-105700000D01*
X106500000Y-105671428D01*
X106557142Y-105671428D01*
X106642857Y-105700000D01*
X106671428Y-105728571D01*
X106928571Y-106271428D02*
X106928571Y-105671428D01*
X107271428Y-106271428D02*
X107014285Y-105928571D01*
X107271428Y-105671428D02*
X106928571Y-106014285D01*
X103271428Y-106242857D02*
X103357142Y-106271428D01*
X103500000Y-106271428D01*
X103557142Y-106242857D01*
X103585714Y-106214285D01*
X103614285Y-106157142D01*
X103614285Y-106100000D01*
X103585714Y-106042857D01*
X103557142Y-106014285D01*
X103500000Y-105985714D01*
X103385714Y-105957142D01*
X103328571Y-105928571D01*
X103300000Y-105900000D01*
X103271428Y-105842857D01*
X103271428Y-105785714D01*
X103300000Y-105728571D01*
X103328571Y-105700000D01*
X103385714Y-105671428D01*
X103528571Y-105671428D01*
X103614285Y-105700000D01*
X103871428Y-106271428D02*
X103871428Y-105671428D01*
X104014285Y-105671428D01*
X104100000Y-105700000D01*
X104157142Y-105757142D01*
X104185714Y-105814285D01*
X104214285Y-105928571D01*
X104214285Y-106014285D01*
X104185714Y-106128571D01*
X104157142Y-106185714D01*
X104100000Y-106242857D01*
X104014285Y-106271428D01*
X103871428Y-106271428D01*
X104442857Y-106100000D02*
X104728571Y-106100000D01*
X104385714Y-106271428D02*
X104585714Y-105671428D01*
X104785714Y-106271428D01*
X100785714Y-105671428D02*
X100985714Y-106271428D01*
X101185714Y-105671428D01*
X101642857Y-106242857D02*
X101585714Y-106271428D01*
X101471428Y-106271428D01*
X101414285Y-106242857D01*
X101385714Y-106214285D01*
X101357142Y-106157142D01*
X101357142Y-105985714D01*
X101385714Y-105928571D01*
X101414285Y-105900000D01*
X101471428Y-105871428D01*
X101585714Y-105871428D01*
X101642857Y-105900000D01*
X102157142Y-106242857D02*
X102100000Y-106271428D01*
X101985714Y-106271428D01*
X101928571Y-106242857D01*
X101900000Y-106214285D01*
X101871428Y-106157142D01*
X101871428Y-105985714D01*
X101900000Y-105928571D01*
X101928571Y-105900000D01*
X101985714Y-105871428D01*
X102100000Y-105871428D01*
X102157142Y-105900000D01*
X98542857Y-105700000D02*
X98485714Y-105671428D01*
X98400000Y-105671428D01*
X98314285Y-105700000D01*
X98257142Y-105757142D01*
X98228571Y-105814285D01*
X98200000Y-105928571D01*
X98200000Y-106014285D01*
X98228571Y-106128571D01*
X98257142Y-106185714D01*
X98314285Y-106242857D01*
X98400000Y-106271428D01*
X98457142Y-106271428D01*
X98542857Y-106242857D01*
X98571428Y-106214285D01*
X98571428Y-106014285D01*
X98457142Y-106014285D01*
X98828571Y-106271428D02*
X98828571Y-105671428D01*
X99171428Y-106271428D01*
X99171428Y-105671428D01*
X99457142Y-106271428D02*
X99457142Y-105671428D01*
X99600000Y-105671428D01*
X99685714Y-105700000D01*
X99742857Y-105757142D01*
X99771428Y-105814285D01*
X99800000Y-105928571D01*
X99800000Y-106014285D01*
X99771428Y-106128571D01*
X99742857Y-106185714D01*
X99685714Y-106242857D01*
X99600000Y-106271428D01*
X99457142Y-106271428D01*
X74357142Y-124600000D02*
X74642857Y-124600000D01*
X74300000Y-124771428D02*
X74500000Y-124171428D01*
X74700000Y-124771428D01*
X74814285Y-124171428D02*
X75157142Y-124171428D01*
X74985714Y-124771428D02*
X74985714Y-124171428D01*
X75357142Y-124771428D02*
X75357142Y-124171428D01*
X75557142Y-124600000D01*
X75757142Y-124171428D01*
X75757142Y-124771428D01*
X76042857Y-124457142D02*
X76242857Y-124457142D01*
X76328571Y-124771428D02*
X76042857Y-124771428D01*
X76042857Y-124171428D01*
X76328571Y-124171428D01*
X76900000Y-124200000D02*
X76842857Y-124171428D01*
X76757142Y-124171428D01*
X76671428Y-124200000D01*
X76614285Y-124257142D01*
X76585714Y-124314285D01*
X76557142Y-124428571D01*
X76557142Y-124514285D01*
X76585714Y-124628571D01*
X76614285Y-124685714D01*
X76671428Y-124742857D01*
X76757142Y-124771428D01*
X76814285Y-124771428D01*
X76900000Y-124742857D01*
X76928571Y-124714285D01*
X76928571Y-124514285D01*
X76814285Y-124514285D01*
X77157142Y-124600000D02*
X77442857Y-124600000D01*
X77100000Y-124771428D02*
X77300000Y-124171428D01*
X77500000Y-124771428D01*
X77642857Y-124171428D02*
X78014285Y-124171428D01*
X77814285Y-124400000D01*
X77900000Y-124400000D01*
X77957142Y-124428571D01*
X77985714Y-124457142D01*
X78014285Y-124514285D01*
X78014285Y-124657142D01*
X77985714Y-124714285D01*
X77957142Y-124742857D01*
X77900000Y-124771428D01*
X77728571Y-124771428D01*
X77671428Y-124742857D01*
X77642857Y-124714285D01*
X78242857Y-124228571D02*
X78271428Y-124200000D01*
X78328571Y-124171428D01*
X78471428Y-124171428D01*
X78528571Y-124200000D01*
X78557142Y-124228571D01*
X78585714Y-124285714D01*
X78585714Y-124342857D01*
X78557142Y-124428571D01*
X78214285Y-124771428D01*
X78585714Y-124771428D01*
X78928571Y-124428571D02*
X78871428Y-124400000D01*
X78842857Y-124371428D01*
X78814285Y-124314285D01*
X78814285Y-124285714D01*
X78842857Y-124228571D01*
X78871428Y-124200000D01*
X78928571Y-124171428D01*
X79042857Y-124171428D01*
X79100000Y-124200000D01*
X79128571Y-124228571D01*
X79157142Y-124285714D01*
X79157142Y-124314285D01*
X79128571Y-124371428D01*
X79100000Y-124400000D01*
X79042857Y-124428571D01*
X78928571Y-124428571D01*
X78871428Y-124457142D01*
X78842857Y-124485714D01*
X78814285Y-124542857D01*
X78814285Y-124657142D01*
X78842857Y-124714285D01*
X78871428Y-124742857D01*
X78928571Y-124771428D01*
X79042857Y-124771428D01*
X79100000Y-124742857D01*
X79128571Y-124714285D01*
X79157142Y-124657142D01*
X79157142Y-124542857D01*
X79128571Y-124485714D01*
X79100000Y-124457142D01*
X79042857Y-124428571D01*
X79414285Y-124771428D02*
X79414285Y-124171428D01*
X79642857Y-124171428D01*
X79700000Y-124200000D01*
X79728571Y-124228571D01*
X79757142Y-124285714D01*
X79757142Y-124371428D01*
X79728571Y-124428571D01*
X79700000Y-124457142D01*
X79642857Y-124485714D01*
X79414285Y-124485714D01*
X80014285Y-124542857D02*
X80471428Y-124542857D01*
X80728571Y-124600000D02*
X81014285Y-124600000D01*
X80671428Y-124771428D02*
X80871428Y-124171428D01*
X81071428Y-124771428D01*
X81271428Y-124171428D02*
X81271428Y-124657142D01*
X81300000Y-124714285D01*
X81328571Y-124742857D01*
X81385714Y-124771428D01*
X81500000Y-124771428D01*
X81557142Y-124742857D01*
X81585714Y-124714285D01*
X81614285Y-124657142D01*
X81614285Y-124171428D01*
X90542857Y-105671428D02*
X90885714Y-105671428D01*
X90714285Y-106271428D02*
X90714285Y-105671428D01*
X91028571Y-105671428D02*
X91428571Y-106271428D01*
X91428571Y-105671428D02*
X91028571Y-106271428D01*
X88380000Y-106271428D02*
X88180000Y-105985714D01*
X88037142Y-106271428D02*
X88037142Y-105671428D01*
X88265714Y-105671428D01*
X88322857Y-105700000D01*
X88351428Y-105728571D01*
X88380000Y-105785714D01*
X88380000Y-105871428D01*
X88351428Y-105928571D01*
X88322857Y-105957142D01*
X88265714Y-105985714D01*
X88037142Y-105985714D01*
X88580000Y-105671428D02*
X88980000Y-106271428D01*
X88980000Y-105671428D02*
X88580000Y-106271428D01*
X83042857Y-105700000D02*
X82985714Y-105671428D01*
X82900000Y-105671428D01*
X82814285Y-105700000D01*
X82757142Y-105757142D01*
X82728571Y-105814285D01*
X82700000Y-105928571D01*
X82700000Y-106014285D01*
X82728571Y-106128571D01*
X82757142Y-106185714D01*
X82814285Y-106242857D01*
X82900000Y-106271428D01*
X82957142Y-106271428D01*
X83042857Y-106242857D01*
X83071428Y-106214285D01*
X83071428Y-106014285D01*
X82957142Y-106014285D01*
X83328571Y-106271428D02*
X83328571Y-105671428D01*
X83671428Y-106271428D01*
X83671428Y-105671428D01*
X83957142Y-106271428D02*
X83957142Y-105671428D01*
X84100000Y-105671428D01*
X84185714Y-105700000D01*
X84242857Y-105757142D01*
X84271428Y-105814285D01*
X84300000Y-105928571D01*
X84300000Y-106014285D01*
X84271428Y-106128571D01*
X84242857Y-106185714D01*
X84185714Y-106242857D01*
X84100000Y-106271428D01*
X83957142Y-106271428D01*
X85285714Y-105671428D02*
X85485714Y-106271428D01*
X85685714Y-105671428D01*
X86142857Y-106242857D02*
X86085714Y-106271428D01*
X85971428Y-106271428D01*
X85914285Y-106242857D01*
X85885714Y-106214285D01*
X85857142Y-106157142D01*
X85857142Y-105985714D01*
X85885714Y-105928571D01*
X85914285Y-105900000D01*
X85971428Y-105871428D01*
X86085714Y-105871428D01*
X86142857Y-105900000D01*
X86657142Y-106242857D02*
X86600000Y-106271428D01*
X86485714Y-106271428D01*
X86428571Y-106242857D01*
X86400000Y-106214285D01*
X86371428Y-106157142D01*
X86371428Y-105985714D01*
X86400000Y-105928571D01*
X86428571Y-105900000D01*
X86485714Y-105871428D01*
X86600000Y-105871428D01*
X86657142Y-105900000D01*
X71671428Y-117214285D02*
X72271428Y-117014285D01*
X71671428Y-116814285D01*
X72242857Y-116357142D02*
X72271428Y-116414285D01*
X72271428Y-116528571D01*
X72242857Y-116585714D01*
X72214285Y-116614285D01*
X72157142Y-116642857D01*
X71985714Y-116642857D01*
X71928571Y-116614285D01*
X71900000Y-116585714D01*
X71871428Y-116528571D01*
X71871428Y-116414285D01*
X71900000Y-116357142D01*
X72242857Y-115842857D02*
X72271428Y-115900000D01*
X72271428Y-116014285D01*
X72242857Y-116071428D01*
X72214285Y-116100000D01*
X72157142Y-116128571D01*
X71985714Y-116128571D01*
X71928571Y-116100000D01*
X71900000Y-116071428D01*
X71871428Y-116014285D01*
X71871428Y-115900000D01*
X71900000Y-115842857D01*
X72271428Y-120432857D02*
X71671428Y-120432857D01*
X72100000Y-120232857D01*
X71671428Y-120032857D01*
X72271428Y-120032857D01*
X71671428Y-119632857D02*
X71671428Y-119518571D01*
X71700000Y-119461428D01*
X71757142Y-119404285D01*
X71871428Y-119375714D01*
X72071428Y-119375714D01*
X72185714Y-119404285D01*
X72242857Y-119461428D01*
X72271428Y-119518571D01*
X72271428Y-119632857D01*
X72242857Y-119690000D01*
X72185714Y-119747142D01*
X72071428Y-119775714D01*
X71871428Y-119775714D01*
X71757142Y-119747142D01*
X71700000Y-119690000D01*
X71671428Y-119632857D01*
X72242857Y-119147142D02*
X72271428Y-119061428D01*
X72271428Y-118918571D01*
X72242857Y-118861428D01*
X72214285Y-118832857D01*
X72157142Y-118804285D01*
X72100000Y-118804285D01*
X72042857Y-118832857D01*
X72014285Y-118861428D01*
X71985714Y-118918571D01*
X71957142Y-119032857D01*
X71928571Y-119090000D01*
X71900000Y-119118571D01*
X71842857Y-119147142D01*
X71785714Y-119147142D01*
X71728571Y-119118571D01*
X71700000Y-119090000D01*
X71671428Y-119032857D01*
X71671428Y-118890000D01*
X71700000Y-118804285D01*
X72271428Y-118547142D02*
X71671428Y-118547142D01*
X71700000Y-122457142D02*
X71671428Y-122514285D01*
X71671428Y-122600000D01*
X71700000Y-122685714D01*
X71757142Y-122742857D01*
X71814285Y-122771428D01*
X71928571Y-122800000D01*
X72014285Y-122800000D01*
X72128571Y-122771428D01*
X72185714Y-122742857D01*
X72242857Y-122685714D01*
X72271428Y-122600000D01*
X72271428Y-122542857D01*
X72242857Y-122457142D01*
X72214285Y-122428571D01*
X72014285Y-122428571D01*
X72014285Y-122542857D01*
X72271428Y-122171428D02*
X71671428Y-122171428D01*
X72271428Y-121828571D01*
X71671428Y-121828571D01*
X72271428Y-121542857D02*
X71671428Y-121542857D01*
X71671428Y-121400000D01*
X71700000Y-121314285D01*
X71757142Y-121257142D01*
X71814285Y-121228571D01*
X71928571Y-121200000D01*
X72014285Y-121200000D01*
X72128571Y-121228571D01*
X72185714Y-121257142D01*
X72242857Y-121314285D01*
X72271428Y-121400000D01*
X72271428Y-121542857D01*
X78771428Y-117942857D02*
X78171428Y-117942857D01*
X78600000Y-117742857D01*
X78171428Y-117542857D01*
X78771428Y-117542857D01*
X78771428Y-117257142D02*
X78171428Y-117257142D01*
X78742857Y-117000000D02*
X78771428Y-116914285D01*
X78771428Y-116771428D01*
X78742857Y-116714285D01*
X78714285Y-116685714D01*
X78657142Y-116657142D01*
X78600000Y-116657142D01*
X78542857Y-116685714D01*
X78514285Y-116714285D01*
X78485714Y-116771428D01*
X78457142Y-116885714D01*
X78428571Y-116942857D01*
X78400000Y-116971428D01*
X78342857Y-117000000D01*
X78285714Y-117000000D01*
X78228571Y-116971428D01*
X78200000Y-116942857D01*
X78171428Y-116885714D01*
X78171428Y-116742857D01*
X78200000Y-116657142D01*
X78171428Y-116285714D02*
X78171428Y-116171428D01*
X78200000Y-116114285D01*
X78257142Y-116057142D01*
X78371428Y-116028571D01*
X78571428Y-116028571D01*
X78685714Y-116057142D01*
X78742857Y-116114285D01*
X78771428Y-116171428D01*
X78771428Y-116285714D01*
X78742857Y-116342857D01*
X78685714Y-116400000D01*
X78571428Y-116428571D01*
X78371428Y-116428571D01*
X78257142Y-116400000D01*
X78200000Y-116342857D01*
X78171428Y-116285714D01*
X78742857Y-120271428D02*
X78771428Y-120185714D01*
X78771428Y-120042857D01*
X78742857Y-119985714D01*
X78714285Y-119957142D01*
X78657142Y-119928571D01*
X78600000Y-119928571D01*
X78542857Y-119957142D01*
X78514285Y-119985714D01*
X78485714Y-120042857D01*
X78457142Y-120157142D01*
X78428571Y-120214285D01*
X78400000Y-120242857D01*
X78342857Y-120271428D01*
X78285714Y-120271428D01*
X78228571Y-120242857D01*
X78200000Y-120214285D01*
X78171428Y-120157142D01*
X78171428Y-120014285D01*
X78200000Y-119928571D01*
X78714285Y-119328571D02*
X78742857Y-119357142D01*
X78771428Y-119442857D01*
X78771428Y-119500000D01*
X78742857Y-119585714D01*
X78685714Y-119642857D01*
X78628571Y-119671428D01*
X78514285Y-119700000D01*
X78428571Y-119700000D01*
X78314285Y-119671428D01*
X78257142Y-119642857D01*
X78200000Y-119585714D01*
X78171428Y-119500000D01*
X78171428Y-119442857D01*
X78200000Y-119357142D01*
X78228571Y-119328571D01*
X78771428Y-119071428D02*
X78171428Y-119071428D01*
X78771428Y-118728571D02*
X78428571Y-118985714D01*
X78171428Y-118728571D02*
X78514285Y-119071428D01*
X78771428Y-122828571D02*
X78485714Y-123028571D01*
X78771428Y-123171428D02*
X78171428Y-123171428D01*
X78171428Y-122942857D01*
X78200000Y-122885714D01*
X78228571Y-122857142D01*
X78285714Y-122828571D01*
X78371428Y-122828571D01*
X78428571Y-122857142D01*
X78457142Y-122885714D01*
X78485714Y-122942857D01*
X78485714Y-123171428D01*
X78742857Y-122600000D02*
X78771428Y-122514285D01*
X78771428Y-122371428D01*
X78742857Y-122314285D01*
X78714285Y-122285714D01*
X78657142Y-122257142D01*
X78600000Y-122257142D01*
X78542857Y-122285714D01*
X78514285Y-122314285D01*
X78485714Y-122371428D01*
X78457142Y-122485714D01*
X78428571Y-122542857D01*
X78400000Y-122571428D01*
X78342857Y-122600000D01*
X78285714Y-122600000D01*
X78228571Y-122571428D01*
X78200000Y-122542857D01*
X78171428Y-122485714D01*
X78171428Y-122342857D01*
X78200000Y-122257142D01*
X78171428Y-122085714D02*
X78171428Y-121742857D01*
X78771428Y-121914285D02*
X78171428Y-121914285D01*
X98285714Y-125171428D02*
X98485714Y-125771428D01*
X98685714Y-125171428D01*
X99142857Y-125742857D02*
X99085714Y-125771428D01*
X98971428Y-125771428D01*
X98914285Y-125742857D01*
X98885714Y-125714285D01*
X98857142Y-125657142D01*
X98857142Y-125485714D01*
X98885714Y-125428571D01*
X98914285Y-125400000D01*
X98971428Y-125371428D01*
X99085714Y-125371428D01*
X99142857Y-125400000D01*
X99657142Y-125742857D02*
X99600000Y-125771428D01*
X99485714Y-125771428D01*
X99428571Y-125742857D01*
X99400000Y-125714285D01*
X99371428Y-125657142D01*
X99371428Y-125485714D01*
X99400000Y-125428571D01*
X99428571Y-125400000D01*
X99485714Y-125371428D01*
X99600000Y-125371428D01*
X99657142Y-125400000D01*
X96042857Y-125200000D02*
X95985714Y-125171428D01*
X95900000Y-125171428D01*
X95814285Y-125200000D01*
X95757142Y-125257142D01*
X95728571Y-125314285D01*
X95700000Y-125428571D01*
X95700000Y-125514285D01*
X95728571Y-125628571D01*
X95757142Y-125685714D01*
X95814285Y-125742857D01*
X95900000Y-125771428D01*
X95957142Y-125771428D01*
X96042857Y-125742857D01*
X96071428Y-125714285D01*
X96071428Y-125514285D01*
X95957142Y-125514285D01*
X96328571Y-125771428D02*
X96328571Y-125171428D01*
X96671428Y-125771428D01*
X96671428Y-125171428D01*
X96957142Y-125771428D02*
X96957142Y-125171428D01*
X97100000Y-125171428D01*
X97185714Y-125200000D01*
X97242857Y-125257142D01*
X97271428Y-125314285D01*
X97300000Y-125428571D01*
X97300000Y-125514285D01*
X97271428Y-125628571D01*
X97242857Y-125685714D01*
X97185714Y-125742857D01*
X97100000Y-125771428D01*
X96957142Y-125771428D01*
X93557142Y-125771428D02*
X93557142Y-125171428D01*
X93700000Y-125171428D01*
X93785714Y-125200000D01*
X93842857Y-125257142D01*
X93871428Y-125314285D01*
X93900000Y-125428571D01*
X93900000Y-125514285D01*
X93871428Y-125628571D01*
X93842857Y-125685714D01*
X93785714Y-125742857D01*
X93700000Y-125771428D01*
X93557142Y-125771428D01*
X94242857Y-125428571D02*
X94185714Y-125400000D01*
X94157142Y-125371428D01*
X94128571Y-125314285D01*
X94128571Y-125285714D01*
X94157142Y-125228571D01*
X94185714Y-125200000D01*
X94242857Y-125171428D01*
X94357142Y-125171428D01*
X94414285Y-125200000D01*
X94442857Y-125228571D01*
X94471428Y-125285714D01*
X94471428Y-125314285D01*
X94442857Y-125371428D01*
X94414285Y-125400000D01*
X94357142Y-125428571D01*
X94242857Y-125428571D01*
X94185714Y-125457142D01*
X94157142Y-125485714D01*
X94128571Y-125542857D01*
X94128571Y-125657142D01*
X94157142Y-125714285D01*
X94185714Y-125742857D01*
X94242857Y-125771428D01*
X94357142Y-125771428D01*
X94414285Y-125742857D01*
X94442857Y-125714285D01*
X94471428Y-125657142D01*
X94471428Y-125542857D01*
X94442857Y-125485714D01*
X94414285Y-125457142D01*
X94357142Y-125428571D01*
X91057142Y-125771428D02*
X91057142Y-125171428D01*
X91200000Y-125171428D01*
X91285714Y-125200000D01*
X91342857Y-125257142D01*
X91371428Y-125314285D01*
X91400000Y-125428571D01*
X91400000Y-125514285D01*
X91371428Y-125628571D01*
X91342857Y-125685714D01*
X91285714Y-125742857D01*
X91200000Y-125771428D01*
X91057142Y-125771428D01*
X91600000Y-125171428D02*
X92000000Y-125171428D01*
X91742857Y-125771428D01*
X88557142Y-125771428D02*
X88557142Y-125171428D01*
X88700000Y-125171428D01*
X88785714Y-125200000D01*
X88842857Y-125257142D01*
X88871428Y-125314285D01*
X88900000Y-125428571D01*
X88900000Y-125514285D01*
X88871428Y-125628571D01*
X88842857Y-125685714D01*
X88785714Y-125742857D01*
X88700000Y-125771428D01*
X88557142Y-125771428D01*
X89414285Y-125171428D02*
X89300000Y-125171428D01*
X89242857Y-125200000D01*
X89214285Y-125228571D01*
X89157142Y-125314285D01*
X89128571Y-125428571D01*
X89128571Y-125657142D01*
X89157142Y-125714285D01*
X89185714Y-125742857D01*
X89242857Y-125771428D01*
X89357142Y-125771428D01*
X89414285Y-125742857D01*
X89442857Y-125714285D01*
X89471428Y-125657142D01*
X89471428Y-125514285D01*
X89442857Y-125457142D01*
X89414285Y-125428571D01*
X89357142Y-125400000D01*
X89242857Y-125400000D01*
X89185714Y-125428571D01*
X89157142Y-125457142D01*
X89128571Y-125514285D01*
X86057142Y-125771428D02*
X86057142Y-125171428D01*
X86200000Y-125171428D01*
X86285714Y-125200000D01*
X86342857Y-125257142D01*
X86371428Y-125314285D01*
X86400000Y-125428571D01*
X86400000Y-125514285D01*
X86371428Y-125628571D01*
X86342857Y-125685714D01*
X86285714Y-125742857D01*
X86200000Y-125771428D01*
X86057142Y-125771428D01*
X86942857Y-125171428D02*
X86657142Y-125171428D01*
X86628571Y-125457142D01*
X86657142Y-125428571D01*
X86714285Y-125400000D01*
X86857142Y-125400000D01*
X86914285Y-125428571D01*
X86942857Y-125457142D01*
X86971428Y-125514285D01*
X86971428Y-125657142D01*
X86942857Y-125714285D01*
X86914285Y-125742857D01*
X86857142Y-125771428D01*
X86714285Y-125771428D01*
X86657142Y-125742857D01*
X86628571Y-125714285D01*
X78557142Y-125771428D02*
X78557142Y-125171428D01*
X78700000Y-125171428D01*
X78785714Y-125200000D01*
X78842857Y-125257142D01*
X78871428Y-125314285D01*
X78900000Y-125428571D01*
X78900000Y-125514285D01*
X78871428Y-125628571D01*
X78842857Y-125685714D01*
X78785714Y-125742857D01*
X78700000Y-125771428D01*
X78557142Y-125771428D01*
X79128571Y-125228571D02*
X79157142Y-125200000D01*
X79214285Y-125171428D01*
X79357142Y-125171428D01*
X79414285Y-125200000D01*
X79442857Y-125228571D01*
X79471428Y-125285714D01*
X79471428Y-125342857D01*
X79442857Y-125428571D01*
X79100000Y-125771428D01*
X79471428Y-125771428D01*
X83557142Y-125771428D02*
X83557142Y-125171428D01*
X83700000Y-125171428D01*
X83785714Y-125200000D01*
X83842857Y-125257142D01*
X83871428Y-125314285D01*
X83900000Y-125428571D01*
X83900000Y-125514285D01*
X83871428Y-125628571D01*
X83842857Y-125685714D01*
X83785714Y-125742857D01*
X83700000Y-125771428D01*
X83557142Y-125771428D01*
X84414285Y-125371428D02*
X84414285Y-125771428D01*
X84271428Y-125142857D02*
X84128571Y-125571428D01*
X84500000Y-125571428D01*
X81057142Y-125771428D02*
X81057142Y-125171428D01*
X81200000Y-125171428D01*
X81285714Y-125200000D01*
X81342857Y-125257142D01*
X81371428Y-125314285D01*
X81400000Y-125428571D01*
X81400000Y-125514285D01*
X81371428Y-125628571D01*
X81342857Y-125685714D01*
X81285714Y-125742857D01*
X81200000Y-125771428D01*
X81057142Y-125771428D01*
X81600000Y-125171428D02*
X81971428Y-125171428D01*
X81771428Y-125400000D01*
X81857142Y-125400000D01*
X81914285Y-125428571D01*
X81942857Y-125457142D01*
X81971428Y-125514285D01*
X81971428Y-125657142D01*
X81942857Y-125714285D01*
X81914285Y-125742857D01*
X81857142Y-125771428D01*
X81685714Y-125771428D01*
X81628571Y-125742857D01*
X81600000Y-125714285D01*
%TO.C,J1*%
X80671428Y-103700000D02*
X81100000Y-103700000D01*
X81185714Y-103728571D01*
X81242857Y-103785714D01*
X81271428Y-103871428D01*
X81271428Y-103928571D01*
X81271428Y-103100000D02*
X81271428Y-103442857D01*
X81271428Y-103271428D02*
X80671428Y-103271428D01*
X80757142Y-103328571D01*
X80814285Y-103385714D01*
X80842857Y-103442857D01*
%TO.C,C1*%
X91900000Y-108214285D02*
X91871428Y-108242857D01*
X91785714Y-108271428D01*
X91728571Y-108271428D01*
X91642857Y-108242857D01*
X91585714Y-108185714D01*
X91557142Y-108128571D01*
X91528571Y-108014285D01*
X91528571Y-107928571D01*
X91557142Y-107814285D01*
X91585714Y-107757142D01*
X91642857Y-107700000D01*
X91728571Y-107671428D01*
X91785714Y-107671428D01*
X91871428Y-107700000D01*
X91900000Y-107728571D01*
X92471428Y-108271428D02*
X92128571Y-108271428D01*
X92300000Y-108271428D02*
X92300000Y-107671428D01*
X92242857Y-107757142D01*
X92185714Y-107814285D01*
X92128571Y-107842857D01*
X91014285Y-108728571D02*
X91042857Y-108700000D01*
X91100000Y-108671428D01*
X91242857Y-108671428D01*
X91300000Y-108700000D01*
X91328571Y-108728571D01*
X91357142Y-108785714D01*
X91357142Y-108842857D01*
X91328571Y-108928571D01*
X90985714Y-109271428D01*
X91357142Y-109271428D01*
X91585714Y-108728571D02*
X91614285Y-108700000D01*
X91671428Y-108671428D01*
X91814285Y-108671428D01*
X91871428Y-108700000D01*
X91900000Y-108728571D01*
X91928571Y-108785714D01*
X91928571Y-108842857D01*
X91900000Y-108928571D01*
X91557142Y-109271428D01*
X91928571Y-109271428D01*
X92185714Y-108871428D02*
X92185714Y-109471428D01*
X92185714Y-108900000D02*
X92242857Y-108871428D01*
X92357142Y-108871428D01*
X92414285Y-108900000D01*
X92442857Y-108928571D01*
X92471428Y-108985714D01*
X92471428Y-109157142D01*
X92442857Y-109214285D01*
X92414285Y-109242857D01*
X92357142Y-109271428D01*
X92242857Y-109271428D01*
X92185714Y-109242857D01*
X92928571Y-108957142D02*
X92728571Y-108957142D01*
X92728571Y-109271428D02*
X92728571Y-108671428D01*
X93014285Y-108671428D01*
%TO.C,U2*%
X95042857Y-115261428D02*
X95042857Y-115747142D01*
X95071428Y-115804285D01*
X95100000Y-115832857D01*
X95157142Y-115861428D01*
X95271428Y-115861428D01*
X95328571Y-115832857D01*
X95357142Y-115804285D01*
X95385714Y-115747142D01*
X95385714Y-115261428D01*
X95642857Y-115318571D02*
X95671428Y-115290000D01*
X95728571Y-115261428D01*
X95871428Y-115261428D01*
X95928571Y-115290000D01*
X95957142Y-115318571D01*
X95985714Y-115375714D01*
X95985714Y-115432857D01*
X95957142Y-115518571D01*
X95614285Y-115861428D01*
X95985714Y-115861428D01*
X93357142Y-122438571D02*
X93385714Y-122410000D01*
X93442857Y-122381428D01*
X93585714Y-122381428D01*
X93642857Y-122410000D01*
X93671428Y-122438571D01*
X93700000Y-122495714D01*
X93700000Y-122552857D01*
X93671428Y-122638571D01*
X93328571Y-122981428D01*
X93700000Y-122981428D01*
X94214285Y-122581428D02*
X94214285Y-122981428D01*
X94071428Y-122352857D02*
X93928571Y-122781428D01*
X94300000Y-122781428D01*
X94814285Y-122981428D02*
X94528571Y-122981428D01*
X94528571Y-122381428D01*
X95357142Y-122924285D02*
X95328571Y-122952857D01*
X95242857Y-122981428D01*
X95185714Y-122981428D01*
X95100000Y-122952857D01*
X95042857Y-122895714D01*
X95014285Y-122838571D01*
X94985714Y-122724285D01*
X94985714Y-122638571D01*
X95014285Y-122524285D01*
X95042857Y-122467142D01*
X95100000Y-122410000D01*
X95185714Y-122381428D01*
X95242857Y-122381428D01*
X95328571Y-122410000D01*
X95357142Y-122438571D01*
X95928571Y-122981428D02*
X95585714Y-122981428D01*
X95757142Y-122981428D02*
X95757142Y-122381428D01*
X95700000Y-122467142D01*
X95642857Y-122524285D01*
X95585714Y-122552857D01*
X96300000Y-122381428D02*
X96357142Y-122381428D01*
X96414285Y-122410000D01*
X96442857Y-122438571D01*
X96471428Y-122495714D01*
X96500000Y-122610000D01*
X96500000Y-122752857D01*
X96471428Y-122867142D01*
X96442857Y-122924285D01*
X96414285Y-122952857D01*
X96357142Y-122981428D01*
X96300000Y-122981428D01*
X96242857Y-122952857D01*
X96214285Y-122924285D01*
X96185714Y-122867142D01*
X96157142Y-122752857D01*
X96157142Y-122610000D01*
X96185714Y-122495714D01*
X96214285Y-122438571D01*
X96242857Y-122410000D01*
X96300000Y-122381428D01*
X96728571Y-122438571D02*
X96757142Y-122410000D01*
X96814285Y-122381428D01*
X96957142Y-122381428D01*
X97014285Y-122410000D01*
X97042857Y-122438571D01*
X97071428Y-122495714D01*
X97071428Y-122552857D01*
X97042857Y-122638571D01*
X96700000Y-122981428D01*
X97071428Y-122981428D01*
X97614285Y-122381428D02*
X97328571Y-122381428D01*
X97300000Y-122667142D01*
X97328571Y-122638571D01*
X97385714Y-122610000D01*
X97528571Y-122610000D01*
X97585714Y-122638571D01*
X97614285Y-122667142D01*
X97642857Y-122724285D01*
X97642857Y-122867142D01*
X97614285Y-122924285D01*
X97585714Y-122952857D01*
X97528571Y-122981428D01*
X97385714Y-122981428D01*
X97328571Y-122952857D01*
X97300000Y-122924285D01*
%TO.C,Y2*%
X81164285Y-105935714D02*
X81164285Y-106221428D01*
X80964285Y-105621428D02*
X81164285Y-105935714D01*
X81364285Y-105621428D01*
X81535714Y-105678571D02*
X81564285Y-105650000D01*
X81621428Y-105621428D01*
X81764285Y-105621428D01*
X81821428Y-105650000D01*
X81850000Y-105678571D01*
X81878571Y-105735714D01*
X81878571Y-105792857D01*
X81850000Y-105878571D01*
X81507142Y-106221428D01*
X81878571Y-106221428D01*
X78678571Y-111764285D02*
X78650000Y-111792857D01*
X78564285Y-111821428D01*
X78507142Y-111821428D01*
X78421428Y-111792857D01*
X78364285Y-111735714D01*
X78335714Y-111678571D01*
X78307142Y-111564285D01*
X78307142Y-111478571D01*
X78335714Y-111364285D01*
X78364285Y-111307142D01*
X78421428Y-111250000D01*
X78507142Y-111221428D01*
X78564285Y-111221428D01*
X78650000Y-111250000D01*
X78678571Y-111278571D01*
X78935714Y-111821428D02*
X78935714Y-111421428D01*
X78935714Y-111535714D02*
X78964285Y-111478571D01*
X78992857Y-111450000D01*
X79050000Y-111421428D01*
X79107142Y-111421428D01*
X79250000Y-111421428D02*
X79392857Y-111821428D01*
X79535714Y-111421428D02*
X79392857Y-111821428D01*
X79335714Y-111964285D01*
X79307142Y-111992857D01*
X79250000Y-112021428D01*
X79735714Y-111792857D02*
X79792857Y-111821428D01*
X79907142Y-111821428D01*
X79964285Y-111792857D01*
X79992857Y-111735714D01*
X79992857Y-111707142D01*
X79964285Y-111650000D01*
X79907142Y-111621428D01*
X79821428Y-111621428D01*
X79764285Y-111592857D01*
X79735714Y-111535714D01*
X79735714Y-111507142D01*
X79764285Y-111450000D01*
X79821428Y-111421428D01*
X79907142Y-111421428D01*
X79964285Y-111450000D01*
X80164285Y-111421428D02*
X80392857Y-111421428D01*
X80250000Y-111221428D02*
X80250000Y-111735714D01*
X80278571Y-111792857D01*
X80335714Y-111821428D01*
X80392857Y-111821428D01*
X80850000Y-111821428D02*
X80850000Y-111507142D01*
X80821428Y-111450000D01*
X80764285Y-111421428D01*
X80650000Y-111421428D01*
X80592857Y-111450000D01*
X80850000Y-111792857D02*
X80792857Y-111821428D01*
X80650000Y-111821428D01*
X80592857Y-111792857D01*
X80564285Y-111735714D01*
X80564285Y-111678571D01*
X80592857Y-111621428D01*
X80650000Y-111592857D01*
X80792857Y-111592857D01*
X80850000Y-111564285D01*
X81221428Y-111821428D02*
X81164285Y-111792857D01*
X81135714Y-111735714D01*
X81135714Y-111221428D01*
X82221428Y-111821428D02*
X81878571Y-111821428D01*
X82050000Y-111821428D02*
X82050000Y-111221428D01*
X81992857Y-111307142D01*
X81935714Y-111364285D01*
X81878571Y-111392857D01*
X82735714Y-111221428D02*
X82621428Y-111221428D01*
X82564285Y-111250000D01*
X82535714Y-111278571D01*
X82478571Y-111364285D01*
X82450000Y-111478571D01*
X82450000Y-111707142D01*
X82478571Y-111764285D01*
X82507142Y-111792857D01*
X82564285Y-111821428D01*
X82678571Y-111821428D01*
X82735714Y-111792857D01*
X82764285Y-111764285D01*
X82792857Y-111707142D01*
X82792857Y-111564285D01*
X82764285Y-111507142D01*
X82735714Y-111478571D01*
X82678571Y-111450000D01*
X82564285Y-111450000D01*
X82507142Y-111478571D01*
X82478571Y-111507142D01*
X82450000Y-111564285D01*
X83050000Y-111821428D02*
X83050000Y-111221428D01*
X83250000Y-111650000D01*
X83450000Y-111221428D01*
X83450000Y-111821428D01*
X83735714Y-111821428D02*
X83735714Y-111221428D01*
X83735714Y-111507142D02*
X84078571Y-111507142D01*
X84078571Y-111821428D02*
X84078571Y-111221428D01*
X84307142Y-111421428D02*
X84621428Y-111421428D01*
X84307142Y-111821428D01*
X84621428Y-111821428D01*
%TO.C,U3*%
X107792857Y-106321428D02*
X107792857Y-106807142D01*
X107821428Y-106864285D01*
X107850000Y-106892857D01*
X107907142Y-106921428D01*
X108021428Y-106921428D01*
X108078571Y-106892857D01*
X108107142Y-106864285D01*
X108135714Y-106807142D01*
X108135714Y-106321428D01*
X108364285Y-106321428D02*
X108735714Y-106321428D01*
X108535714Y-106550000D01*
X108621428Y-106550000D01*
X108678571Y-106578571D01*
X108707142Y-106607142D01*
X108735714Y-106664285D01*
X108735714Y-106807142D01*
X108707142Y-106864285D01*
X108678571Y-106892857D01*
X108621428Y-106921428D01*
X108450000Y-106921428D01*
X108392857Y-106892857D01*
X108364285Y-106864285D01*
X106664285Y-115021428D02*
X106664285Y-114421428D01*
X106807142Y-114421428D01*
X106892857Y-114450000D01*
X106950000Y-114507142D01*
X106978571Y-114564285D01*
X107007142Y-114678571D01*
X107007142Y-114764285D01*
X106978571Y-114878571D01*
X106950000Y-114935714D01*
X106892857Y-114992857D01*
X106807142Y-115021428D01*
X106664285Y-115021428D01*
X107235714Y-114992857D02*
X107321428Y-115021428D01*
X107464285Y-115021428D01*
X107521428Y-114992857D01*
X107550000Y-114964285D01*
X107578571Y-114907142D01*
X107578571Y-114850000D01*
X107550000Y-114792857D01*
X107521428Y-114764285D01*
X107464285Y-114735714D01*
X107350000Y-114707142D01*
X107292857Y-114678571D01*
X107264285Y-114650000D01*
X107235714Y-114592857D01*
X107235714Y-114535714D01*
X107264285Y-114478571D01*
X107292857Y-114450000D01*
X107350000Y-114421428D01*
X107492857Y-114421428D01*
X107578571Y-114450000D01*
X108150000Y-115021428D02*
X107807142Y-115021428D01*
X107978571Y-115021428D02*
X107978571Y-114421428D01*
X107921428Y-114507142D01*
X107864285Y-114564285D01*
X107807142Y-114592857D01*
X108350000Y-114421428D02*
X108721428Y-114421428D01*
X108521428Y-114650000D01*
X108607142Y-114650000D01*
X108664285Y-114678571D01*
X108692857Y-114707142D01*
X108721428Y-114764285D01*
X108721428Y-114907142D01*
X108692857Y-114964285D01*
X108664285Y-114992857D01*
X108607142Y-115021428D01*
X108435714Y-115021428D01*
X108378571Y-114992857D01*
X108350000Y-114964285D01*
X108921428Y-114421428D02*
X109292857Y-114421428D01*
X109092857Y-114650000D01*
X109178571Y-114650000D01*
X109235714Y-114678571D01*
X109264285Y-114707142D01*
X109292857Y-114764285D01*
X109292857Y-114907142D01*
X109264285Y-114964285D01*
X109235714Y-114992857D01*
X109178571Y-115021428D01*
X109007142Y-115021428D01*
X108950000Y-114992857D01*
X108921428Y-114964285D01*
X109492857Y-114421428D02*
X109892857Y-114421428D01*
X109635714Y-115021428D01*
%TO.C,J4*%
X74703566Y-113632380D02*
X74703566Y-114346666D01*
X74655947Y-114489523D01*
X74560709Y-114584761D01*
X74417852Y-114632380D01*
X74322614Y-114632380D01*
X75608328Y-113965714D02*
X75608328Y-114632380D01*
X75370233Y-113584761D02*
X75132138Y-114299047D01*
X75751185Y-114299047D01*
X71614285Y-124771428D02*
X71614285Y-124171428D01*
X72242857Y-124714285D02*
X72214285Y-124742857D01*
X72128571Y-124771428D01*
X72071428Y-124771428D01*
X71985714Y-124742857D01*
X71928571Y-124685714D01*
X71900000Y-124628571D01*
X71871428Y-124514285D01*
X71871428Y-124428571D01*
X71900000Y-124314285D01*
X71928571Y-124257142D01*
X71985714Y-124200000D01*
X72071428Y-124171428D01*
X72128571Y-124171428D01*
X72214285Y-124200000D01*
X72242857Y-124228571D01*
X72471428Y-124742857D02*
X72557142Y-124771428D01*
X72700000Y-124771428D01*
X72757142Y-124742857D01*
X72785714Y-124714285D01*
X72814285Y-124657142D01*
X72814285Y-124600000D01*
X72785714Y-124542857D01*
X72757142Y-124514285D01*
X72700000Y-124485714D01*
X72585714Y-124457142D01*
X72528571Y-124428571D01*
X72500000Y-124400000D01*
X72471428Y-124342857D01*
X72471428Y-124285714D01*
X72500000Y-124228571D01*
X72528571Y-124200000D01*
X72585714Y-124171428D01*
X72728571Y-124171428D01*
X72814285Y-124200000D01*
X73071428Y-124771428D02*
X73071428Y-124171428D01*
X73300000Y-124171428D01*
X73357142Y-124200000D01*
X73385714Y-124228571D01*
X73414285Y-124285714D01*
X73414285Y-124371428D01*
X73385714Y-124428571D01*
X73357142Y-124457142D01*
X73300000Y-124485714D01*
X73071428Y-124485714D01*
%TO.C,C2*%
X91900000Y-111714285D02*
X91871428Y-111742857D01*
X91785714Y-111771428D01*
X91728571Y-111771428D01*
X91642857Y-111742857D01*
X91585714Y-111685714D01*
X91557142Y-111628571D01*
X91528571Y-111514285D01*
X91528571Y-111428571D01*
X91557142Y-111314285D01*
X91585714Y-111257142D01*
X91642857Y-111200000D01*
X91728571Y-111171428D01*
X91785714Y-111171428D01*
X91871428Y-111200000D01*
X91900000Y-111228571D01*
X92128571Y-111228571D02*
X92157142Y-111200000D01*
X92214285Y-111171428D01*
X92357142Y-111171428D01*
X92414285Y-111200000D01*
X92442857Y-111228571D01*
X92471428Y-111285714D01*
X92471428Y-111342857D01*
X92442857Y-111428571D01*
X92100000Y-111771428D01*
X92471428Y-111771428D01*
X91014285Y-112228571D02*
X91042857Y-112200000D01*
X91100000Y-112171428D01*
X91242857Y-112171428D01*
X91300000Y-112200000D01*
X91328571Y-112228571D01*
X91357142Y-112285714D01*
X91357142Y-112342857D01*
X91328571Y-112428571D01*
X90985714Y-112771428D01*
X91357142Y-112771428D01*
X91585714Y-112228571D02*
X91614285Y-112200000D01*
X91671428Y-112171428D01*
X91814285Y-112171428D01*
X91871428Y-112200000D01*
X91900000Y-112228571D01*
X91928571Y-112285714D01*
X91928571Y-112342857D01*
X91900000Y-112428571D01*
X91557142Y-112771428D01*
X91928571Y-112771428D01*
X92185714Y-112371428D02*
X92185714Y-112971428D01*
X92185714Y-112400000D02*
X92242857Y-112371428D01*
X92357142Y-112371428D01*
X92414285Y-112400000D01*
X92442857Y-112428571D01*
X92471428Y-112485714D01*
X92471428Y-112657142D01*
X92442857Y-112714285D01*
X92414285Y-112742857D01*
X92357142Y-112771428D01*
X92242857Y-112771428D01*
X92185714Y-112742857D01*
X92928571Y-112457142D02*
X92728571Y-112457142D01*
X92728571Y-112771428D02*
X92728571Y-112171428D01*
X93014285Y-112171428D01*
%TO.C,U1*%
X96042857Y-106261428D02*
X96042857Y-106747142D01*
X96071428Y-106804285D01*
X96100000Y-106832857D01*
X96157142Y-106861428D01*
X96271428Y-106861428D01*
X96328571Y-106832857D01*
X96357142Y-106804285D01*
X96385714Y-106747142D01*
X96385714Y-106261428D01*
X96985714Y-106861428D02*
X96642857Y-106861428D01*
X96814285Y-106861428D02*
X96814285Y-106261428D01*
X96757142Y-106347142D01*
X96700000Y-106404285D01*
X96642857Y-106432857D01*
X95807142Y-113438571D02*
X95835714Y-113410000D01*
X95892857Y-113381428D01*
X96035714Y-113381428D01*
X96092857Y-113410000D01*
X96121428Y-113438571D01*
X96150000Y-113495714D01*
X96150000Y-113552857D01*
X96121428Y-113638571D01*
X95778571Y-113981428D01*
X96150000Y-113981428D01*
X96664285Y-113581428D02*
X96664285Y-113981428D01*
X96521428Y-113352857D02*
X96378571Y-113781428D01*
X96750000Y-113781428D01*
X97264285Y-113981428D02*
X96978571Y-113981428D01*
X96978571Y-113381428D01*
X97807142Y-113924285D02*
X97778571Y-113952857D01*
X97692857Y-113981428D01*
X97635714Y-113981428D01*
X97550000Y-113952857D01*
X97492857Y-113895714D01*
X97464285Y-113838571D01*
X97435714Y-113724285D01*
X97435714Y-113638571D01*
X97464285Y-113524285D01*
X97492857Y-113467142D01*
X97550000Y-113410000D01*
X97635714Y-113381428D01*
X97692857Y-113381428D01*
X97778571Y-113410000D01*
X97807142Y-113438571D01*
X98378571Y-113981428D02*
X98035714Y-113981428D01*
X98207142Y-113981428D02*
X98207142Y-113381428D01*
X98150000Y-113467142D01*
X98092857Y-113524285D01*
X98035714Y-113552857D01*
X98750000Y-113381428D02*
X98807142Y-113381428D01*
X98864285Y-113410000D01*
X98892857Y-113438571D01*
X98921428Y-113495714D01*
X98950000Y-113610000D01*
X98950000Y-113752857D01*
X98921428Y-113867142D01*
X98892857Y-113924285D01*
X98864285Y-113952857D01*
X98807142Y-113981428D01*
X98750000Y-113981428D01*
X98692857Y-113952857D01*
X98664285Y-113924285D01*
X98635714Y-113867142D01*
X98607142Y-113752857D01*
X98607142Y-113610000D01*
X98635714Y-113495714D01*
X98664285Y-113438571D01*
X98692857Y-113410000D01*
X98750000Y-113381428D01*
X99178571Y-113438571D02*
X99207142Y-113410000D01*
X99264285Y-113381428D01*
X99407142Y-113381428D01*
X99464285Y-113410000D01*
X99492857Y-113438571D01*
X99521428Y-113495714D01*
X99521428Y-113552857D01*
X99492857Y-113638571D01*
X99150000Y-113981428D01*
X99521428Y-113981428D01*
X100064285Y-113381428D02*
X99778571Y-113381428D01*
X99750000Y-113667142D01*
X99778571Y-113638571D01*
X99835714Y-113610000D01*
X99978571Y-113610000D01*
X100035714Y-113638571D01*
X100064285Y-113667142D01*
X100092857Y-113724285D01*
X100092857Y-113867142D01*
X100064285Y-113924285D01*
X100035714Y-113952857D01*
X99978571Y-113981428D01*
X99835714Y-113981428D01*
X99778571Y-113952857D01*
X99750000Y-113924285D01*
%TO.C,D1*%
X102612142Y-120466428D02*
X102612142Y-119866428D01*
X102755000Y-119866428D01*
X102840714Y-119895000D01*
X102897857Y-119952142D01*
X102926428Y-120009285D01*
X102955000Y-120123571D01*
X102955000Y-120209285D01*
X102926428Y-120323571D01*
X102897857Y-120380714D01*
X102840714Y-120437857D01*
X102755000Y-120466428D01*
X102612142Y-120466428D01*
X103526428Y-120466428D02*
X103183571Y-120466428D01*
X103355000Y-120466428D02*
X103355000Y-119866428D01*
X103297857Y-119952142D01*
X103240714Y-120009285D01*
X103183571Y-120037857D01*
X102614285Y-123766428D02*
X102328571Y-123766428D01*
X102328571Y-123166428D01*
X102814285Y-123452142D02*
X103014285Y-123452142D01*
X103100000Y-123766428D02*
X102814285Y-123766428D01*
X102814285Y-123166428D01*
X103100000Y-123166428D01*
X103357142Y-123766428D02*
X103357142Y-123166428D01*
X103500000Y-123166428D01*
X103585714Y-123195000D01*
X103642857Y-123252142D01*
X103671428Y-123309285D01*
X103700000Y-123423571D01*
X103700000Y-123509285D01*
X103671428Y-123623571D01*
X103642857Y-123680714D01*
X103585714Y-123737857D01*
X103500000Y-123766428D01*
X103357142Y-123766428D01*
%TO.C,BT1*%
X72528571Y-105457142D02*
X72614285Y-105485714D01*
X72642857Y-105514285D01*
X72671428Y-105571428D01*
X72671428Y-105657142D01*
X72642857Y-105714285D01*
X72614285Y-105742857D01*
X72557142Y-105771428D01*
X72328571Y-105771428D01*
X72328571Y-105171428D01*
X72528571Y-105171428D01*
X72585714Y-105200000D01*
X72614285Y-105228571D01*
X72642857Y-105285714D01*
X72642857Y-105342857D01*
X72614285Y-105400000D01*
X72585714Y-105428571D01*
X72528571Y-105457142D01*
X72328571Y-105457142D01*
X72842857Y-105171428D02*
X73185714Y-105171428D01*
X73014285Y-105771428D02*
X73014285Y-105171428D01*
X73700000Y-105771428D02*
X73357142Y-105771428D01*
X73528571Y-105771428D02*
X73528571Y-105171428D01*
X73471428Y-105257142D01*
X73414285Y-105314285D01*
X73357142Y-105342857D01*
X75957142Y-111014285D02*
X75985714Y-110928571D01*
X76014285Y-110900000D01*
X76071428Y-110871428D01*
X76157142Y-110871428D01*
X76214285Y-110900000D01*
X76242857Y-110928571D01*
X76271428Y-110985714D01*
X76271428Y-111214285D01*
X75671428Y-111214285D01*
X75671428Y-111014285D01*
X75700000Y-110957142D01*
X75728571Y-110928571D01*
X75785714Y-110900000D01*
X75842857Y-110900000D01*
X75900000Y-110928571D01*
X75928571Y-110957142D01*
X75957142Y-111014285D01*
X75957142Y-111214285D01*
X76271428Y-110357142D02*
X75957142Y-110357142D01*
X75900000Y-110385714D01*
X75871428Y-110442857D01*
X75871428Y-110557142D01*
X75900000Y-110614285D01*
X76242857Y-110357142D02*
X76271428Y-110414285D01*
X76271428Y-110557142D01*
X76242857Y-110614285D01*
X76185714Y-110642857D01*
X76128571Y-110642857D01*
X76071428Y-110614285D01*
X76042857Y-110557142D01*
X76042857Y-110414285D01*
X76014285Y-110357142D01*
X75871428Y-110157142D02*
X75871428Y-109928571D01*
X75671428Y-110071428D02*
X76185714Y-110071428D01*
X76242857Y-110042857D01*
X76271428Y-109985714D01*
X76271428Y-109928571D01*
X75871428Y-109814285D02*
X75871428Y-109585714D01*
X75671428Y-109728571D02*
X76185714Y-109728571D01*
X76242857Y-109700000D01*
X76271428Y-109642857D01*
X76271428Y-109585714D01*
X76242857Y-109157142D02*
X76271428Y-109214285D01*
X76271428Y-109328571D01*
X76242857Y-109385714D01*
X76185714Y-109414285D01*
X75957142Y-109414285D01*
X75900000Y-109385714D01*
X75871428Y-109328571D01*
X75871428Y-109214285D01*
X75900000Y-109157142D01*
X75957142Y-109128571D01*
X76014285Y-109128571D01*
X76071428Y-109414285D01*
X76271428Y-108871428D02*
X75871428Y-108871428D01*
X75985714Y-108871428D02*
X75928571Y-108842857D01*
X75900000Y-108814285D01*
X75871428Y-108757142D01*
X75871428Y-108700000D01*
X75871428Y-108557142D02*
X76271428Y-108414285D01*
X75871428Y-108271428D02*
X76271428Y-108414285D01*
X76414285Y-108471428D01*
X76442857Y-108500000D01*
X76471428Y-108557142D01*
X75671428Y-107642857D02*
X75671428Y-107271428D01*
X75900000Y-107471428D01*
X75900000Y-107385714D01*
X75928571Y-107328571D01*
X75957142Y-107300000D01*
X76014285Y-107271428D01*
X76157142Y-107271428D01*
X76214285Y-107300000D01*
X76242857Y-107328571D01*
X76271428Y-107385714D01*
X76271428Y-107557142D01*
X76242857Y-107614285D01*
X76214285Y-107642857D01*
X75671428Y-107100000D02*
X76271428Y-106900000D01*
X75671428Y-106700000D01*
%TO.C,C3*%
X110900000Y-116714285D02*
X110871428Y-116742857D01*
X110785714Y-116771428D01*
X110728571Y-116771428D01*
X110642857Y-116742857D01*
X110585714Y-116685714D01*
X110557142Y-116628571D01*
X110528571Y-116514285D01*
X110528571Y-116428571D01*
X110557142Y-116314285D01*
X110585714Y-116257142D01*
X110642857Y-116200000D01*
X110728571Y-116171428D01*
X110785714Y-116171428D01*
X110871428Y-116200000D01*
X110900000Y-116228571D01*
X111100000Y-116171428D02*
X111471428Y-116171428D01*
X111271428Y-116400000D01*
X111357142Y-116400000D01*
X111414285Y-116428571D01*
X111442857Y-116457142D01*
X111471428Y-116514285D01*
X111471428Y-116657142D01*
X111442857Y-116714285D01*
X111414285Y-116742857D01*
X111357142Y-116771428D01*
X111185714Y-116771428D01*
X111128571Y-116742857D01*
X111100000Y-116714285D01*
X110857142Y-117771428D02*
X110514285Y-117771428D01*
X110685714Y-117771428D02*
X110685714Y-117171428D01*
X110628571Y-117257142D01*
X110571428Y-117314285D01*
X110514285Y-117342857D01*
X111228571Y-117171428D02*
X111285714Y-117171428D01*
X111342857Y-117200000D01*
X111371428Y-117228571D01*
X111400000Y-117285714D01*
X111428571Y-117400000D01*
X111428571Y-117542857D01*
X111400000Y-117657142D01*
X111371428Y-117714285D01*
X111342857Y-117742857D01*
X111285714Y-117771428D01*
X111228571Y-117771428D01*
X111171428Y-117742857D01*
X111142857Y-117714285D01*
X111114285Y-117657142D01*
X111085714Y-117542857D01*
X111085714Y-117400000D01*
X111114285Y-117285714D01*
X111142857Y-117228571D01*
X111171428Y-117200000D01*
X111228571Y-117171428D01*
X111942857Y-117371428D02*
X111942857Y-117771428D01*
X111685714Y-117371428D02*
X111685714Y-117685714D01*
X111714285Y-117742857D01*
X111771428Y-117771428D01*
X111857142Y-117771428D01*
X111914285Y-117742857D01*
X111942857Y-117714285D01*
X112428571Y-117457142D02*
X112228571Y-117457142D01*
X112228571Y-117771428D02*
X112228571Y-117171428D01*
X112514285Y-117171428D01*
%TO.C,J2*%
X75751428Y-127850000D02*
X76180000Y-127850000D01*
X76265714Y-127878571D01*
X76322857Y-127935714D01*
X76351428Y-128021428D01*
X76351428Y-128078571D01*
X75808571Y-127592857D02*
X75780000Y-127564285D01*
X75751428Y-127507142D01*
X75751428Y-127364285D01*
X75780000Y-127307142D01*
X75808571Y-127278571D01*
X75865714Y-127250000D01*
X75922857Y-127250000D01*
X76008571Y-127278571D01*
X76351428Y-127621428D01*
X76351428Y-127250000D01*
%TO.C,Y1*%
X102523809Y-114376190D02*
X102523809Y-114852380D01*
X102190476Y-113852380D02*
X102523809Y-114376190D01*
X102857142Y-113852380D01*
X103714285Y-114852380D02*
X103142857Y-114852380D01*
X103428571Y-114852380D02*
X103428571Y-113852380D01*
X103333333Y-113995238D01*
X103238095Y-114090476D01*
X103142857Y-114138095D01*
X101728571Y-119464285D02*
X101700000Y-119492857D01*
X101614285Y-119521428D01*
X101557142Y-119521428D01*
X101471428Y-119492857D01*
X101414285Y-119435714D01*
X101385714Y-119378571D01*
X101357142Y-119264285D01*
X101357142Y-119178571D01*
X101385714Y-119064285D01*
X101414285Y-119007142D01*
X101471428Y-118950000D01*
X101557142Y-118921428D01*
X101614285Y-118921428D01*
X101700000Y-118950000D01*
X101728571Y-118978571D01*
X101985714Y-119521428D02*
X101985714Y-119121428D01*
X101985714Y-119235714D02*
X102014285Y-119178571D01*
X102042857Y-119150000D01*
X102100000Y-119121428D01*
X102157142Y-119121428D01*
X102300000Y-119121428D02*
X102442857Y-119521428D01*
X102585714Y-119121428D02*
X102442857Y-119521428D01*
X102385714Y-119664285D01*
X102357142Y-119692857D01*
X102300000Y-119721428D01*
X102785714Y-119492857D02*
X102842857Y-119521428D01*
X102957142Y-119521428D01*
X103014285Y-119492857D01*
X103042857Y-119435714D01*
X103042857Y-119407142D01*
X103014285Y-119350000D01*
X102957142Y-119321428D01*
X102871428Y-119321428D01*
X102814285Y-119292857D01*
X102785714Y-119235714D01*
X102785714Y-119207142D01*
X102814285Y-119150000D01*
X102871428Y-119121428D01*
X102957142Y-119121428D01*
X103014285Y-119150000D01*
X103214285Y-119121428D02*
X103442857Y-119121428D01*
X103300000Y-118921428D02*
X103300000Y-119435714D01*
X103328571Y-119492857D01*
X103385714Y-119521428D01*
X103442857Y-119521428D01*
X103900000Y-119521428D02*
X103900000Y-119207142D01*
X103871428Y-119150000D01*
X103814285Y-119121428D01*
X103700000Y-119121428D01*
X103642857Y-119150000D01*
X103900000Y-119492857D02*
X103842857Y-119521428D01*
X103700000Y-119521428D01*
X103642857Y-119492857D01*
X103614285Y-119435714D01*
X103614285Y-119378571D01*
X103642857Y-119321428D01*
X103700000Y-119292857D01*
X103842857Y-119292857D01*
X103900000Y-119264285D01*
X104271428Y-119521428D02*
X104214285Y-119492857D01*
X104185714Y-119435714D01*
X104185714Y-118921428D01*
X104900000Y-118921428D02*
X105271428Y-118921428D01*
X105071428Y-119150000D01*
X105157142Y-119150000D01*
X105214285Y-119178571D01*
X105242857Y-119207142D01*
X105271428Y-119264285D01*
X105271428Y-119407142D01*
X105242857Y-119464285D01*
X105214285Y-119492857D01*
X105157142Y-119521428D01*
X104985714Y-119521428D01*
X104928571Y-119492857D01*
X104900000Y-119464285D01*
X105500000Y-118978571D02*
X105528571Y-118950000D01*
X105585714Y-118921428D01*
X105728571Y-118921428D01*
X105785714Y-118950000D01*
X105814285Y-118978571D01*
X105842857Y-119035714D01*
X105842857Y-119092857D01*
X105814285Y-119178571D01*
X105471428Y-119521428D01*
X105842857Y-119521428D01*
X106100000Y-119521428D02*
X106100000Y-118921428D01*
X106300000Y-119350000D01*
X106500000Y-118921428D01*
X106500000Y-119521428D01*
X106785714Y-119521428D02*
X106785714Y-118921428D01*
X106785714Y-119207142D02*
X107128571Y-119207142D01*
X107128571Y-119521428D02*
X107128571Y-118921428D01*
X107357142Y-119121428D02*
X107671428Y-119121428D01*
X107357142Y-119521428D01*
X107671428Y-119521428D01*
%TO.C,R2*%
X75900000Y-105271428D02*
X75700000Y-104985714D01*
X75557142Y-105271428D02*
X75557142Y-104671428D01*
X75785714Y-104671428D01*
X75842857Y-104700000D01*
X75871428Y-104728571D01*
X75900000Y-104785714D01*
X75900000Y-104871428D01*
X75871428Y-104928571D01*
X75842857Y-104957142D01*
X75785714Y-104985714D01*
X75557142Y-104985714D01*
X76128571Y-104728571D02*
X76157142Y-104700000D01*
X76214285Y-104671428D01*
X76357142Y-104671428D01*
X76414285Y-104700000D01*
X76442857Y-104728571D01*
X76471428Y-104785714D01*
X76471428Y-104842857D01*
X76442857Y-104928571D01*
X76100000Y-105271428D01*
X76471428Y-105271428D01*
X77100000Y-103521428D02*
X76757142Y-103521428D01*
X76928571Y-103521428D02*
X76928571Y-102921428D01*
X76871428Y-103007142D01*
X76814285Y-103064285D01*
X76757142Y-103092857D01*
X77471428Y-102921428D02*
X77528571Y-102921428D01*
X77585714Y-102950000D01*
X77614285Y-102978571D01*
X77642857Y-103035714D01*
X77671428Y-103150000D01*
X77671428Y-103292857D01*
X77642857Y-103407142D01*
X77614285Y-103464285D01*
X77585714Y-103492857D01*
X77528571Y-103521428D01*
X77471428Y-103521428D01*
X77414285Y-103492857D01*
X77385714Y-103464285D01*
X77357142Y-103407142D01*
X77328571Y-103292857D01*
X77328571Y-103150000D01*
X77357142Y-103035714D01*
X77385714Y-102978571D01*
X77414285Y-102950000D01*
X77471428Y-102921428D01*
X77928571Y-103521428D02*
X77928571Y-102921428D01*
X78271428Y-103521428D02*
X78014285Y-103178571D01*
X78271428Y-102921428D02*
X77928571Y-103264285D01*
X78642857Y-102921428D02*
X78757142Y-102921428D01*
X78814285Y-102950000D01*
X78871428Y-103007142D01*
X78900000Y-103121428D01*
X78900000Y-103321428D01*
X78871428Y-103435714D01*
X78814285Y-103492857D01*
X78757142Y-103521428D01*
X78642857Y-103521428D01*
X78585714Y-103492857D01*
X78528571Y-103435714D01*
X78500000Y-103321428D01*
X78500000Y-103121428D01*
X78528571Y-103007142D01*
X78585714Y-102950000D01*
X78642857Y-102921428D01*
X79157142Y-103521428D02*
X79157142Y-102921428D01*
X79414285Y-103521428D02*
X79414285Y-103207142D01*
X79385714Y-103150000D01*
X79328571Y-103121428D01*
X79242857Y-103121428D01*
X79185714Y-103150000D01*
X79157142Y-103178571D01*
X79700000Y-103521428D02*
X79700000Y-103121428D01*
X79700000Y-103178571D02*
X79728571Y-103150000D01*
X79785714Y-103121428D01*
X79871428Y-103121428D01*
X79928571Y-103150000D01*
X79957142Y-103207142D01*
X79957142Y-103521428D01*
X79957142Y-103207142D02*
X79985714Y-103150000D01*
X80042857Y-103121428D01*
X80128571Y-103121428D01*
X80185714Y-103150000D01*
X80214285Y-103207142D01*
X80214285Y-103521428D01*
%TO.C,J3*%
X95482380Y-104058333D02*
X96196666Y-104058333D01*
X96339523Y-104105952D01*
X96434761Y-104201190D01*
X96482380Y-104344047D01*
X96482380Y-104439285D01*
X95482380Y-103677380D02*
X95482380Y-103058333D01*
X95863333Y-103391666D01*
X95863333Y-103248809D01*
X95910952Y-103153571D01*
X95958571Y-103105952D01*
X96053809Y-103058333D01*
X96291904Y-103058333D01*
X96387142Y-103105952D01*
X96434761Y-103153571D01*
X96482380Y-103248809D01*
X96482380Y-103534523D01*
X96434761Y-103629761D01*
X96387142Y-103677380D01*
%TO.C,U4*%
X84388095Y-117952380D02*
X84388095Y-118761904D01*
X84435714Y-118857142D01*
X84483333Y-118904761D01*
X84578571Y-118952380D01*
X84769047Y-118952380D01*
X84864285Y-118904761D01*
X84911904Y-118857142D01*
X84959523Y-118761904D01*
X84959523Y-117952380D01*
X85864285Y-118285714D02*
X85864285Y-118952380D01*
X85626190Y-117904761D02*
X85388095Y-118619047D01*
X86007142Y-118619047D01*
X80542857Y-114671428D02*
X80542857Y-115157142D01*
X80571428Y-115214285D01*
X80600000Y-115242857D01*
X80657142Y-115271428D01*
X80771428Y-115271428D01*
X80828571Y-115242857D01*
X80857142Y-115214285D01*
X80885714Y-115157142D01*
X80885714Y-114671428D01*
X81428571Y-114871428D02*
X81428571Y-115271428D01*
X81285714Y-114642857D02*
X81142857Y-115071428D01*
X81514285Y-115071428D01*
%TO.C,R1*%
X110900000Y-121771428D02*
X110700000Y-121485714D01*
X110557142Y-121771428D02*
X110557142Y-121171428D01*
X110785714Y-121171428D01*
X110842857Y-121200000D01*
X110871428Y-121228571D01*
X110900000Y-121285714D01*
X110900000Y-121371428D01*
X110871428Y-121428571D01*
X110842857Y-121457142D01*
X110785714Y-121485714D01*
X110557142Y-121485714D01*
X111471428Y-121771428D02*
X111128571Y-121771428D01*
X111300000Y-121771428D02*
X111300000Y-121171428D01*
X111242857Y-121257142D01*
X111185714Y-121314285D01*
X111128571Y-121342857D01*
X106042857Y-123121428D02*
X106414285Y-123121428D01*
X106214285Y-123350000D01*
X106300000Y-123350000D01*
X106357142Y-123378571D01*
X106385714Y-123407142D01*
X106414285Y-123464285D01*
X106414285Y-123607142D01*
X106385714Y-123664285D01*
X106357142Y-123692857D01*
X106300000Y-123721428D01*
X106128571Y-123721428D01*
X106071428Y-123692857D01*
X106042857Y-123664285D01*
X106614285Y-123121428D02*
X106985714Y-123121428D01*
X106785714Y-123350000D01*
X106871428Y-123350000D01*
X106928571Y-123378571D01*
X106957142Y-123407142D01*
X106985714Y-123464285D01*
X106985714Y-123607142D01*
X106957142Y-123664285D01*
X106928571Y-123692857D01*
X106871428Y-123721428D01*
X106700000Y-123721428D01*
X106642857Y-123692857D01*
X106614285Y-123664285D01*
X107357142Y-123121428D02*
X107414285Y-123121428D01*
X107471428Y-123150000D01*
X107500000Y-123178571D01*
X107528571Y-123235714D01*
X107557142Y-123350000D01*
X107557142Y-123492857D01*
X107528571Y-123607142D01*
X107500000Y-123664285D01*
X107471428Y-123692857D01*
X107414285Y-123721428D01*
X107357142Y-123721428D01*
X107300000Y-123692857D01*
X107271428Y-123664285D01*
X107242857Y-123607142D01*
X107214285Y-123492857D01*
X107214285Y-123350000D01*
X107242857Y-123235714D01*
X107271428Y-123178571D01*
X107300000Y-123150000D01*
X107357142Y-123121428D01*
X107928571Y-123121428D02*
X108042857Y-123121428D01*
X108100000Y-123150000D01*
X108157142Y-123207142D01*
X108185714Y-123321428D01*
X108185714Y-123521428D01*
X108157142Y-123635714D01*
X108100000Y-123692857D01*
X108042857Y-123721428D01*
X107928571Y-123721428D01*
X107871428Y-123692857D01*
X107814285Y-123635714D01*
X107785714Y-123521428D01*
X107785714Y-123321428D01*
X107814285Y-123207142D01*
X107871428Y-123150000D01*
X107928571Y-123121428D01*
X108442857Y-123721428D02*
X108442857Y-123121428D01*
X108700000Y-123721428D02*
X108700000Y-123407142D01*
X108671428Y-123350000D01*
X108614285Y-123321428D01*
X108528571Y-123321428D01*
X108471428Y-123350000D01*
X108442857Y-123378571D01*
X108985714Y-123721428D02*
X108985714Y-123321428D01*
X108985714Y-123378571D02*
X109014285Y-123350000D01*
X109071428Y-123321428D01*
X109157142Y-123321428D01*
X109214285Y-123350000D01*
X109242857Y-123407142D01*
X109242857Y-123721428D01*
X109242857Y-123407142D02*
X109271428Y-123350000D01*
X109328571Y-123321428D01*
X109414285Y-123321428D01*
X109471428Y-123350000D01*
X109500000Y-123407142D01*
X109500000Y-123721428D01*
D11*
%TO.C,J1*%
X92320000Y-105080000D02*
X92320000Y-102420000D01*
X82040000Y-103750000D02*
X82040000Y-102420000D01*
X84640000Y-105080000D02*
X92320000Y-105080000D01*
X84640000Y-102420000D02*
X92320000Y-102420000D01*
X84640000Y-105080000D02*
X84640000Y-102420000D01*
X82040000Y-102420000D02*
X83370000Y-102420000D01*
%TO.C,C1*%
X88938748Y-107065000D02*
X89461252Y-107065000D01*
X88938748Y-108535000D02*
X89461252Y-108535000D01*
%TO.C,U2*%
X92775000Y-121875000D02*
X92775000Y-121615000D01*
X95500000Y-116425000D02*
X98225000Y-116425000D01*
X98225000Y-116425000D02*
X98225000Y-116685000D01*
X92775000Y-116685000D02*
X91100000Y-116685000D01*
X98225000Y-121875000D02*
X98225000Y-121615000D01*
X95500000Y-121875000D02*
X98225000Y-121875000D01*
X95500000Y-121875000D02*
X92775000Y-121875000D01*
X92775000Y-116425000D02*
X92775000Y-116685000D01*
X95500000Y-116425000D02*
X92775000Y-116425000D01*
%TO.C,Y2*%
X76900000Y-110550000D02*
X84150000Y-110550000D01*
X76900000Y-106950000D02*
X76900000Y-110550000D01*
X84150000Y-106950000D02*
X76900000Y-106950000D01*
%TO.C,U3*%
X105490000Y-108235000D02*
X103800000Y-108235000D01*
X108250000Y-113910000D02*
X111010000Y-113910000D01*
X105490000Y-113910000D02*
X105490000Y-113165000D01*
X111010000Y-113910000D02*
X111010000Y-113165000D01*
X108250000Y-107490000D02*
X111010000Y-107490000D01*
X108250000Y-107490000D02*
X105490000Y-107490000D01*
X108250000Y-113910000D02*
X105490000Y-113910000D01*
X105490000Y-107490000D02*
X105490000Y-108235000D01*
X111010000Y-107490000D02*
X111010000Y-108235000D01*
%TO.C,J4*%
X77716900Y-115620000D02*
X77716900Y-116950000D01*
X77716900Y-118220000D02*
X77716900Y-123360000D01*
X76386900Y-115620000D02*
X77716900Y-115620000D01*
X72516900Y-115620000D02*
X75116900Y-115620000D01*
X75116900Y-118220000D02*
X77716900Y-118220000D01*
X75116900Y-115620000D02*
X75116900Y-118220000D01*
X72516900Y-123360000D02*
X77716900Y-123360000D01*
X72516900Y-115620000D02*
X72516900Y-123360000D01*
%TO.C,C2*%
X88938748Y-112235000D02*
X89461252Y-112235000D01*
X88938748Y-110765000D02*
X89461252Y-110765000D01*
%TO.C,U1*%
X95225000Y-107425000D02*
X95225000Y-107685000D01*
X97950000Y-112875000D02*
X100675000Y-112875000D01*
X97950000Y-112875000D02*
X95225000Y-112875000D01*
X95225000Y-112875000D02*
X95225000Y-112615000D01*
X100675000Y-112875000D02*
X100675000Y-112615000D01*
X97950000Y-107425000D02*
X95225000Y-107425000D01*
X97950000Y-107425000D02*
X100675000Y-107425000D01*
X95225000Y-107685000D02*
X93550000Y-107685000D01*
X100675000Y-107425000D02*
X100675000Y-107685000D01*
%TO.C,D1*%
X101195000Y-120885000D02*
X101195000Y-122805000D01*
X104055000Y-120885000D02*
X101195000Y-120885000D01*
X101195000Y-122805000D02*
X104055000Y-122805000D01*
%TO.C,BT1*%
X72516900Y-111695000D02*
X75176900Y-111695000D01*
X72516900Y-106495000D02*
X73846900Y-106495000D01*
X72516900Y-109095000D02*
X72516900Y-111695000D01*
X72516900Y-109095000D02*
X75176900Y-109095000D01*
X75176900Y-109095000D02*
X75176900Y-111695000D01*
X72516900Y-107825000D02*
X72516900Y-106495000D01*
%TO.C,C3*%
X107738748Y-116015000D02*
X108261252Y-116015000D01*
X107738748Y-117485000D02*
X108261252Y-117485000D01*
%TO.C,J2*%
X100500000Y-128980000D02*
X100500000Y-126320000D01*
X77520000Y-126320000D02*
X78850000Y-126320000D01*
X77520000Y-127650000D02*
X77520000Y-126320000D01*
X80120000Y-126320000D02*
X100500000Y-126320000D01*
X80120000Y-128980000D02*
X80120000Y-126320000D01*
X80120000Y-128980000D02*
X100500000Y-128980000D01*
%TO.C,Y1*%
X102300000Y-116350000D02*
X103400000Y-116350000D01*
X100900000Y-116400000D02*
X100900000Y-118200000D01*
X102300000Y-118250000D02*
X103400000Y-118250000D01*
%TO.C,R2*%
X78827064Y-105635000D02*
X78372936Y-105635000D01*
X78827064Y-104165000D02*
X78372936Y-104165000D01*
%TO.C,J3*%
X97470000Y-103725000D02*
X97470000Y-102395000D01*
X100070000Y-105055000D02*
X100070000Y-102395000D01*
X100070000Y-102395000D02*
X107750000Y-102395000D01*
X107750000Y-105055000D02*
X107750000Y-102395000D01*
X97470000Y-102395000D02*
X98800000Y-102395000D01*
X100070000Y-105055000D02*
X107750000Y-105055000D01*
D12*
%TO.C,U4*%
X88750000Y-115650000D02*
X88300000Y-115650000D01*
X81900000Y-115650000D02*
X81550000Y-116000000D01*
X81550000Y-116000000D02*
X81550000Y-116100000D01*
X88750000Y-122850000D02*
X88750000Y-122400000D01*
X88750000Y-115650000D02*
X88750000Y-116100000D01*
X81550000Y-116100000D02*
X80250000Y-116100000D01*
X88750000Y-122850000D02*
X88300000Y-122850000D01*
X81550000Y-122850000D02*
X82000000Y-122850000D01*
X81550000Y-122850000D02*
X81550000Y-122400000D01*
X82000000Y-115650000D02*
X81900000Y-115650000D01*
D11*
%TO.C,R1*%
X107572936Y-122535000D02*
X108027064Y-122535000D01*
X107572936Y-121065000D02*
X108027064Y-121065000D01*
%TD*%
M02*
