%TF.GenerationSoftware,KiCad,Pcbnew,(6.0.1)*%
%TF.CreationDate,2022-06-05T18:06:34-04:00*%
%TF.ProjectId,PCB Design,50434220-4465-4736-9967-6e2e6b696361,v1*%
%TF.SameCoordinates,Original*%
%TF.FileFunction,Soldermask,Top*%
%TF.FilePolarity,Negative*%
%FSLAX46Y46*%
G04 Gerber Fmt 4.6, Leading zero omitted, Abs format (unit mm)*
G04 Created by KiCad (PCBNEW (6.0.1)) date 2022-06-05 18:06:34*
%MOMM*%
%LPD*%
G01*
G04 APERTURE LIST*
G04 Aperture macros list*
%AMRoundRect*
0 Rectangle with rounded corners*
0 $1 Rounding radius*
0 $2 $3 $4 $5 $6 $7 $8 $9 X,Y pos of 4 corners*
0 Add a 4 corners polygon primitive as box body*
4,1,4,$2,$3,$4,$5,$6,$7,$8,$9,$2,$3,0*
0 Add four circle primitives for the rounded corners*
1,1,$1+$1,$2,$3*
1,1,$1+$1,$4,$5*
1,1,$1+$1,$6,$7*
1,1,$1+$1,$8,$9*
0 Add four rect primitives between the rounded corners*
20,1,$1+$1,$2,$3,$4,$5,0*
20,1,$1+$1,$4,$5,$6,$7,0*
20,1,$1+$1,$6,$7,$8,$9,0*
20,1,$1+$1,$8,$9,$2,$3,0*%
G04 Aperture macros list end*
%ADD10R,1.700000X1.700000*%
%ADD11O,1.700000X1.700000*%
%ADD12RoundRect,0.250000X-0.337500X-0.475000X0.337500X-0.475000X0.337500X0.475000X-0.337500X0.475000X0*%
%ADD13RoundRect,0.150000X-0.650000X-0.150000X0.650000X-0.150000X0.650000X0.150000X-0.650000X0.150000X0*%
%ADD14R,3.500000X2.400000*%
%ADD15RoundRect,0.150000X-0.800000X-0.150000X0.800000X-0.150000X0.800000X0.150000X-0.800000X0.150000X0*%
%ADD16RoundRect,0.250000X-0.325000X-0.450000X0.325000X-0.450000X0.325000X0.450000X-0.325000X0.450000X0*%
%ADD17R,1.000000X1.800000*%
%ADD18RoundRect,0.250000X0.350000X0.450000X-0.350000X0.450000X-0.350000X-0.450000X0.350000X-0.450000X0*%
%ADD19R,1.500000X0.550000*%
%ADD20R,0.550000X1.500000*%
%ADD21RoundRect,0.250000X-0.350000X-0.450000X0.350000X-0.450000X0.350000X0.450000X-0.350000X0.450000X0*%
G04 APERTURE END LIST*
D10*
%TO.C,J1*%
X83370000Y-103750000D03*
D11*
X85910000Y-103750000D03*
X88450000Y-103750000D03*
X90990000Y-103750000D03*
%TD*%
D12*
%TO.C,C1*%
X88162500Y-107800000D03*
X90237500Y-107800000D03*
%TD*%
D13*
%TO.C,U2*%
X91900000Y-117245000D03*
X91900000Y-118515000D03*
X91900000Y-119785000D03*
X91900000Y-121055000D03*
X99100000Y-121055000D03*
X99100000Y-119785000D03*
X99100000Y-118515000D03*
X99100000Y-117245000D03*
%TD*%
D14*
%TO.C,Y2*%
X78850000Y-108750000D03*
X84050000Y-108750000D03*
%TD*%
D15*
%TO.C,U3*%
X104750000Y-108795000D03*
X104750000Y-110065000D03*
X104750000Y-111335000D03*
X104750000Y-112605000D03*
X111750000Y-112605000D03*
X111750000Y-111335000D03*
X111750000Y-110065000D03*
X111750000Y-108795000D03*
%TD*%
D10*
%TO.C,J4*%
X76386900Y-116950000D03*
D11*
X73846900Y-116950000D03*
X76386900Y-119490000D03*
X73846900Y-119490000D03*
X76386900Y-122030000D03*
X73846900Y-122030000D03*
%TD*%
D12*
%TO.C,C2*%
X88162500Y-111500000D03*
X90237500Y-111500000D03*
%TD*%
D13*
%TO.C,U1*%
X94350000Y-108245000D03*
X94350000Y-109515000D03*
X94350000Y-110785000D03*
X94350000Y-112055000D03*
X101550000Y-112055000D03*
X101550000Y-110785000D03*
X101550000Y-109515000D03*
X101550000Y-108245000D03*
%TD*%
D16*
%TO.C,D1*%
X102030000Y-121845000D03*
X104080000Y-121845000D03*
%TD*%
D10*
%TO.C,BT1*%
X73846900Y-107825000D03*
D11*
X73846900Y-110365000D03*
%TD*%
D12*
%TO.C,C3*%
X106962500Y-116750000D03*
X109037500Y-116750000D03*
%TD*%
D10*
%TO.C,J2*%
X78850000Y-127650000D03*
D11*
X81390000Y-127650000D03*
X83930000Y-127650000D03*
X86470000Y-127650000D03*
X89010000Y-127650000D03*
X91550000Y-127650000D03*
X94090000Y-127650000D03*
X96630000Y-127650000D03*
X99170000Y-127650000D03*
%TD*%
D17*
%TO.C,Y1*%
X101600000Y-117300000D03*
X104100000Y-117300000D03*
%TD*%
D18*
%TO.C,R2*%
X79600000Y-104900000D03*
X77600000Y-104900000D03*
%TD*%
D10*
%TO.C,J3*%
X98800000Y-103725000D03*
D11*
X101340000Y-103725000D03*
X103880000Y-103725000D03*
X106420000Y-103725000D03*
%TD*%
D19*
%TO.C,U4*%
X80950000Y-116450000D03*
X80950000Y-117250000D03*
X80950000Y-118050000D03*
X80950000Y-118850000D03*
X80950000Y-119650000D03*
X80950000Y-120450000D03*
X80950000Y-121250000D03*
X80950000Y-122050000D03*
D20*
X82350000Y-123450000D03*
X83150000Y-123450000D03*
X83950000Y-123450000D03*
X84750000Y-123450000D03*
X85550000Y-123450000D03*
X86350000Y-123450000D03*
X87150000Y-123450000D03*
X87950000Y-123450000D03*
D19*
X89350000Y-122050000D03*
X89350000Y-121250000D03*
X89350000Y-120450000D03*
X89350000Y-119650000D03*
X89350000Y-118850000D03*
X89350000Y-118050000D03*
X89350000Y-117250000D03*
X89350000Y-116450000D03*
D20*
X87950000Y-115050000D03*
X87150000Y-115050000D03*
X86350000Y-115050000D03*
X85550000Y-115050000D03*
X84750000Y-115050000D03*
X83950000Y-115050000D03*
X83150000Y-115050000D03*
X82350000Y-115050000D03*
%TD*%
D21*
%TO.C,R1*%
X106800000Y-121800000D03*
X108800000Y-121800000D03*
%TD*%
M02*
