%TF.GenerationSoftware,KiCad,Pcbnew,(6.0.1)*%
%TF.CreationDate,2022-06-05T18:07:15-04:00*%
%TF.ProjectId,PCB Design,50434220-4465-4736-9967-6e2e6b696361,v1*%
%TF.SameCoordinates,Original*%
%TF.FileFunction,Copper,L2,Bot*%
%TF.FilePolarity,Positive*%
%FSLAX46Y46*%
G04 Gerber Fmt 4.6, Leading zero omitted, Abs format (unit mm)*
G04 Created by KiCad (PCBNEW (6.0.1)) date 2022-06-05 18:07:15*
%MOMM*%
%LPD*%
G01*
G04 APERTURE LIST*
%TA.AperFunction,ComponentPad*%
%ADD10R,1.700000X1.700000*%
%TD*%
%TA.AperFunction,ComponentPad*%
%ADD11O,1.700000X1.700000*%
%TD*%
%TA.AperFunction,ViaPad*%
%ADD12C,0.800000*%
%TD*%
%TA.AperFunction,Conductor*%
%ADD13C,0.250000*%
%TD*%
%TA.AperFunction,Conductor*%
%ADD14C,0.300000*%
%TD*%
G04 APERTURE END LIST*
D10*
%TO.P,J1,1,Pin_1*%
%TO.N,GNDPWR*%
X83370000Y-103750000D03*
D11*
%TO.P,J1,2,Pin_2*%
%TO.N,/Vcc*%
X85910000Y-103750000D03*
%TO.P,J1,3,Pin_3*%
%TO.N,/RX*%
X88450000Y-103750000D03*
%TO.P,J1,4,Pin_4*%
%TO.N,/TX*%
X90990000Y-103750000D03*
%TD*%
D10*
%TO.P,J4,1,Pin_1*%
%TO.N,/MISO*%
X76386900Y-116950000D03*
D11*
%TO.P,J4,2,Pin_2*%
%TO.N,/Vcc*%
X73846900Y-116950000D03*
%TO.P,J4,3,Pin_3*%
%TO.N,/SCK*%
X76386900Y-119490000D03*
%TO.P,J4,4,Pin_4*%
%TO.N,/MOSI*%
X73846900Y-119490000D03*
%TO.P,J4,5,Pin_5*%
%TO.N,/RESET*%
X76386900Y-122030000D03*
%TO.P,J4,6,Pin_6*%
%TO.N,GNDPWR*%
X73846900Y-122030000D03*
%TD*%
D10*
%TO.P,BT1,1,+*%
%TO.N,/Vcc*%
X73846900Y-107825000D03*
D11*
%TO.P,BT1,2,-*%
%TO.N,GNDPWR*%
X73846900Y-110365000D03*
%TD*%
D10*
%TO.P,J2,1,Pin_1*%
%TO.N,/D2*%
X78850000Y-127650000D03*
D11*
%TO.P,J2,2,Pin_2*%
%TO.N,/D3*%
X81390000Y-127650000D03*
%TO.P,J2,3,Pin_3*%
%TO.N,/D4*%
X83930000Y-127650000D03*
%TO.P,J2,4,Pin_4*%
%TO.N,/D5*%
X86470000Y-127650000D03*
%TO.P,J2,5,Pin_5*%
%TO.N,/D6*%
X89010000Y-127650000D03*
%TO.P,J2,6,Pin_6*%
%TO.N,/D7*%
X91550000Y-127650000D03*
%TO.P,J2,7,Pin_7*%
%TO.N,/D8*%
X94090000Y-127650000D03*
%TO.P,J2,8,Pin_8*%
%TO.N,GNDPWR*%
X96630000Y-127650000D03*
%TO.P,J2,9,Pin_9*%
%TO.N,/Vcc*%
X99170000Y-127650000D03*
%TD*%
D10*
%TO.P,J3,1,Pin_1*%
%TO.N,GNDPWR*%
X98800000Y-103725000D03*
D11*
%TO.P,J3,2,Pin_2*%
%TO.N,/Vcc*%
X101340000Y-103725000D03*
%TO.P,J3,3,Pin_3*%
%TO.N,/SDA*%
X103880000Y-103725000D03*
%TO.P,J3,4,Pin_4*%
%TO.N,/SCK*%
X106420000Y-103725000D03*
%TD*%
D12*
%TO.N,/ADRS2*%
X92922400Y-110661100D03*
X92921600Y-116306500D03*
%TO.N,/ADRS1*%
X89946000Y-109138600D03*
X87963500Y-117250000D03*
%TO.N,/RESET*%
X83582500Y-116430600D03*
X80561400Y-105963600D03*
%TO.N,/MOSI*%
X76228800Y-125301200D03*
%TO.N,/MISO*%
X82822100Y-121586600D03*
%TO.N,/SCK*%
X102824100Y-112663400D03*
%TO.N,/SDA*%
X100118700Y-111884000D03*
%TO.N,/D4*%
X82570600Y-117482300D03*
%TO.N,/D3*%
X78853400Y-118531600D03*
%TO.N,/D2*%
X83304400Y-118288700D03*
%TO.N,/TX*%
X83099100Y-113663500D03*
%TO.N,/RX*%
X83966200Y-112834000D03*
%TO.N,Net-(U4-Pad7)*%
X85694000Y-120780200D03*
X86826700Y-112066100D03*
%TD*%
D13*
%TO.N,/ADRS2*%
X92921600Y-110661900D02*
X92922400Y-110661100D01*
X92921600Y-116306500D02*
X92921600Y-110661900D01*
%TO.N,/ADRS1*%
X89946000Y-115267500D02*
X87963500Y-117250000D01*
X89946000Y-109138600D02*
X89946000Y-115267500D01*
%TO.N,/RESET*%
X76386900Y-122030000D02*
X77562200Y-122030000D01*
X80561400Y-114405900D02*
X80561400Y-105963600D01*
X82586100Y-116430600D02*
X80561400Y-114405900D01*
X82586100Y-116430600D02*
X83582500Y-116430600D01*
X81812000Y-117204700D02*
X82586100Y-116430600D01*
X81812000Y-117901900D02*
X81812000Y-117204700D01*
X83547400Y-119637300D02*
X81812000Y-117901900D01*
X83547400Y-121921100D02*
X83547400Y-119637300D01*
X83115400Y-122353100D02*
X83547400Y-121921100D01*
X77885300Y-122353100D02*
X83115400Y-122353100D01*
X77562200Y-122030000D02*
X77885300Y-122353100D01*
%TO.N,/MOSI*%
X72671500Y-120665400D02*
X73846900Y-119490000D01*
X72671500Y-122550400D02*
X72671500Y-120665400D01*
X75422300Y-125301200D02*
X72671500Y-122550400D01*
X76228800Y-125301200D02*
X75422300Y-125301200D01*
%TO.N,/MISO*%
X78319300Y-116950000D02*
X76386900Y-116950000D01*
X82822100Y-121452800D02*
X78319300Y-116950000D01*
X82822100Y-121586600D02*
X82822100Y-121452800D01*
%TO.N,/SCK*%
X106420000Y-109067500D02*
X102824100Y-112663400D01*
X106420000Y-103725000D02*
X106420000Y-109067500D01*
%TO.N,/SDA*%
X103880000Y-108122700D02*
X100118700Y-111884000D01*
X103880000Y-103725000D02*
X103880000Y-108122700D01*
%TO.N,/D4*%
X83930000Y-127650000D02*
X83930000Y-126474700D01*
X83523800Y-117482300D02*
X82570600Y-117482300D01*
X84448000Y-118406500D02*
X83523800Y-117482300D01*
X84448000Y-125956700D02*
X84448000Y-118406500D01*
X83930000Y-126474700D02*
X84448000Y-125956700D01*
%TO.N,/D3*%
X80214700Y-128458100D02*
X80214700Y-127650000D01*
X79847500Y-128825300D02*
X80214700Y-128458100D01*
X77854100Y-128825300D02*
X79847500Y-128825300D01*
X77205600Y-128176800D02*
X77854100Y-128825300D01*
X77205600Y-124589800D02*
X77205600Y-128176800D01*
X75204900Y-122589100D02*
X77205600Y-124589800D01*
X75204900Y-121507700D02*
X75204900Y-122589100D01*
X76047200Y-120665400D02*
X75204900Y-121507700D01*
X76915600Y-120665400D02*
X76047200Y-120665400D01*
X78853400Y-118727600D02*
X76915600Y-120665400D01*
X78853400Y-118531600D02*
X78853400Y-118727600D01*
X81390000Y-127650000D02*
X80214700Y-127650000D01*
%TO.N,/D2*%
X78850000Y-127650000D02*
X78850000Y-126474700D01*
X83997700Y-118982000D02*
X83304400Y-118288700D01*
X83997700Y-122116000D02*
X83997700Y-118982000D01*
X79639000Y-126474700D02*
X83997700Y-122116000D01*
X78850000Y-126474700D02*
X79639000Y-126474700D01*
%TO.N,/TX*%
X90990000Y-103750000D02*
X90990000Y-104925300D01*
X90990000Y-106836000D02*
X90990000Y-104925300D01*
X84162600Y-113663400D02*
X90990000Y-106836000D01*
X83099100Y-113663400D02*
X84162600Y-113663400D01*
X83099100Y-113663500D02*
X83099100Y-113663400D01*
%TO.N,/RX*%
X83966200Y-109409100D02*
X88450000Y-104925300D01*
X83966200Y-112834000D02*
X83966200Y-109409100D01*
X88450000Y-103750000D02*
X88450000Y-104925300D01*
%TO.N,Net-(U4-Pad7)*%
X85694000Y-113198800D02*
X85694000Y-120780200D01*
X86826700Y-112066100D02*
X85694000Y-113198800D01*
D14*
%TO.N,GNDPWR*%
X98800000Y-103725000D02*
X98800000Y-104925300D01*
X81662200Y-103750000D02*
X75047200Y-110365000D01*
X83370000Y-103750000D02*
X81662200Y-103750000D01*
X75116900Y-110649400D02*
X74832500Y-110365000D01*
X75116900Y-119934800D02*
X75116900Y-110649400D01*
X74222000Y-120829700D02*
X75116900Y-119934800D01*
X73846900Y-120829700D02*
X74222000Y-120829700D01*
X73846900Y-110365000D02*
X74832500Y-110365000D01*
X74832500Y-110365000D02*
X75047200Y-110365000D01*
X73846900Y-122030000D02*
X73846900Y-120829700D01*
X83370000Y-103750000D02*
X84570300Y-103750000D01*
X84570300Y-103374800D02*
X84570300Y-103750000D01*
X85395400Y-102549700D02*
X84570300Y-103374800D01*
X92084400Y-102549700D02*
X85395400Y-102549700D01*
X96630000Y-107095300D02*
X92084400Y-102549700D01*
X96630000Y-127650000D02*
X96630000Y-107095300D01*
X96630000Y-107095300D02*
X98800000Y-104925300D01*
%TO.N,/Vcc*%
X73846900Y-116950000D02*
X73846900Y-115749700D01*
X73846900Y-107825000D02*
X73846900Y-109025300D01*
X73471700Y-109025300D02*
X73846900Y-109025300D01*
X72646600Y-109850400D02*
X73471700Y-109025300D01*
X72646600Y-114549400D02*
X72646600Y-109850400D01*
X73846900Y-115749700D02*
X72646600Y-114549400D01*
%TD*%
%TA.AperFunction,Conductor*%
%TO.N,GNDPWR*%
G36*
X111182406Y-100528002D02*
G01*
X111228899Y-100581658D01*
X111239003Y-100651932D01*
X111221719Y-100699833D01*
X111152207Y-100813265D01*
X111150314Y-100817835D01*
X111150313Y-100817837D01*
X111074859Y-101000001D01*
X111061372Y-101032561D01*
X111041902Y-101113660D01*
X111007115Y-101258554D01*
X111007114Y-101258560D01*
X111005960Y-101263367D01*
X110987810Y-101493989D01*
X110987337Y-101500000D01*
X111005960Y-101736633D01*
X111007114Y-101741440D01*
X111007115Y-101741446D01*
X111037204Y-101866774D01*
X111061372Y-101967439D01*
X111063265Y-101972010D01*
X111063266Y-101972012D01*
X111069983Y-101988227D01*
X111152207Y-102186735D01*
X111276230Y-102389121D01*
X111279443Y-102392883D01*
X111357382Y-102484137D01*
X111430386Y-102569614D01*
X111434142Y-102572822D01*
X111465509Y-102599612D01*
X111610879Y-102723770D01*
X111813265Y-102847793D01*
X111817835Y-102849686D01*
X111817837Y-102849687D01*
X112027988Y-102936734D01*
X112032561Y-102938628D01*
X112113660Y-102958098D01*
X112258554Y-102992885D01*
X112258560Y-102992886D01*
X112263367Y-102994040D01*
X112500000Y-103012663D01*
X112736633Y-102994040D01*
X112741440Y-102992886D01*
X112741446Y-102992885D01*
X112886340Y-102958098D01*
X112967439Y-102938628D01*
X112972012Y-102936734D01*
X113182163Y-102849687D01*
X113182165Y-102849686D01*
X113186735Y-102847793D01*
X113300167Y-102778282D01*
X113368699Y-102759744D01*
X113436375Y-102781200D01*
X113481708Y-102835840D01*
X113492000Y-102885715D01*
X113492000Y-127614285D01*
X113471998Y-127682406D01*
X113418342Y-127728899D01*
X113348068Y-127739003D01*
X113300167Y-127721719D01*
X113186735Y-127652207D01*
X113182165Y-127650314D01*
X113182163Y-127650313D01*
X112972012Y-127563266D01*
X112972010Y-127563265D01*
X112967439Y-127561372D01*
X112886340Y-127541902D01*
X112741446Y-127507115D01*
X112741440Y-127507114D01*
X112736633Y-127505960D01*
X112500000Y-127487337D01*
X112263367Y-127505960D01*
X112258560Y-127507114D01*
X112258554Y-127507115D01*
X112113660Y-127541902D01*
X112032561Y-127561372D01*
X112027990Y-127563265D01*
X112027988Y-127563266D01*
X111817837Y-127650313D01*
X111817835Y-127650314D01*
X111813265Y-127652207D01*
X111610879Y-127776230D01*
X111430386Y-127930386D01*
X111427178Y-127934142D01*
X111279664Y-128106858D01*
X111276230Y-128110879D01*
X111152207Y-128313265D01*
X111150314Y-128317835D01*
X111150313Y-128317837D01*
X111091846Y-128458990D01*
X111061372Y-128532561D01*
X111054464Y-128561335D01*
X111007115Y-128758554D01*
X111007114Y-128758560D01*
X111005960Y-128763367D01*
X110987810Y-128993989D01*
X110987337Y-129000000D01*
X111005960Y-129236633D01*
X111007114Y-129241440D01*
X111007115Y-129241446D01*
X111039158Y-129374913D01*
X111061372Y-129467439D01*
X111063265Y-129472010D01*
X111063266Y-129472012D01*
X111082786Y-129519136D01*
X111152207Y-129686735D01*
X111221718Y-129800167D01*
X111240256Y-129868699D01*
X111218800Y-129936375D01*
X111164160Y-129981708D01*
X111114285Y-129992000D01*
X73385715Y-129992000D01*
X73317594Y-129971998D01*
X73271101Y-129918342D01*
X73260997Y-129848068D01*
X73278281Y-129800167D01*
X73347793Y-129686735D01*
X73417215Y-129519136D01*
X73436734Y-129472012D01*
X73436735Y-129472010D01*
X73438628Y-129467439D01*
X73460842Y-129374913D01*
X73492885Y-129241446D01*
X73492886Y-129241440D01*
X73494040Y-129236633D01*
X73512663Y-129000000D01*
X73494040Y-128763367D01*
X73492886Y-128758560D01*
X73492885Y-128758554D01*
X73445536Y-128561335D01*
X73438628Y-128532561D01*
X73408154Y-128458990D01*
X73349687Y-128317837D01*
X73349686Y-128317835D01*
X73347793Y-128313265D01*
X73223770Y-128110879D01*
X73220336Y-128106858D01*
X73072822Y-127934142D01*
X73069614Y-127930386D01*
X72889121Y-127776230D01*
X72686735Y-127652207D01*
X72682165Y-127650314D01*
X72682163Y-127650313D01*
X72472012Y-127563266D01*
X72472010Y-127563265D01*
X72467439Y-127561372D01*
X72386340Y-127541902D01*
X72241446Y-127507115D01*
X72241440Y-127507114D01*
X72236633Y-127505960D01*
X72000000Y-127487337D01*
X71763367Y-127505960D01*
X71758560Y-127507114D01*
X71758554Y-127507115D01*
X71613660Y-127541902D01*
X71532561Y-127561372D01*
X71527990Y-127563265D01*
X71527988Y-127563266D01*
X71317837Y-127650313D01*
X71317835Y-127650314D01*
X71313265Y-127652207D01*
X71199833Y-127721718D01*
X71131301Y-127740256D01*
X71063625Y-127718800D01*
X71018292Y-127664160D01*
X71008000Y-127614285D01*
X71008000Y-109829552D01*
X71983194Y-109829552D01*
X71983940Y-109837443D01*
X71987541Y-109875538D01*
X71988100Y-109887396D01*
X71988100Y-114467344D01*
X71987541Y-114479200D01*
X71985812Y-114486937D01*
X71986061Y-114494859D01*
X71988038Y-114557769D01*
X71988100Y-114561727D01*
X71988100Y-114590832D01*
X71988656Y-114595232D01*
X71989588Y-114607064D01*
X71991038Y-114653231D01*
X71993250Y-114660844D01*
X71993250Y-114660845D01*
X71997019Y-114673816D01*
X72001030Y-114693182D01*
X72003718Y-114714464D01*
X72006634Y-114721829D01*
X72006635Y-114721833D01*
X72020726Y-114757421D01*
X72024565Y-114768631D01*
X72037455Y-114813000D01*
X72048375Y-114831465D01*
X72057066Y-114849205D01*
X72064965Y-114869156D01*
X72072254Y-114879188D01*
X72092116Y-114906526D01*
X72098633Y-114916448D01*
X72118107Y-114949377D01*
X72118110Y-114949381D01*
X72122147Y-114956207D01*
X72137311Y-114971371D01*
X72150151Y-114986404D01*
X72162759Y-115003757D01*
X72183634Y-115021026D01*
X72198352Y-115033202D01*
X72207132Y-115041192D01*
X72930368Y-115764428D01*
X72964394Y-115826740D01*
X72959329Y-115897555D01*
X72932367Y-115940574D01*
X72848180Y-116028671D01*
X72787529Y-116092138D01*
X72661643Y-116276680D01*
X72622911Y-116360121D01*
X72575267Y-116462763D01*
X72567588Y-116479305D01*
X72507889Y-116694570D01*
X72484151Y-116916695D01*
X72484448Y-116921848D01*
X72484448Y-116921851D01*
X72496600Y-117132599D01*
X72497010Y-117139715D01*
X72498147Y-117144761D01*
X72498148Y-117144767D01*
X72513667Y-117213628D01*
X72546122Y-117357639D01*
X72630166Y-117564616D01*
X72665059Y-117621556D01*
X72727833Y-117723994D01*
X72746887Y-117755088D01*
X72893150Y-117923938D01*
X73065026Y-118066632D01*
X73120217Y-118098883D01*
X73138345Y-118109476D01*
X73187069Y-118161114D01*
X73200140Y-118230897D01*
X73173409Y-118296669D01*
X73132955Y-118330027D01*
X73120507Y-118336507D01*
X73116374Y-118339610D01*
X73116371Y-118339612D01*
X72992467Y-118432642D01*
X72941865Y-118470635D01*
X72787529Y-118632138D01*
X72661643Y-118816680D01*
X72567588Y-119019305D01*
X72507889Y-119234570D01*
X72484151Y-119456695D01*
X72497010Y-119679715D01*
X72498147Y-119684761D01*
X72498148Y-119684767D01*
X72530353Y-119827668D01*
X72525817Y-119898520D01*
X72496531Y-119944464D01*
X72279247Y-120161748D01*
X72270961Y-120169288D01*
X72264482Y-120173400D01*
X72259057Y-120179177D01*
X72217857Y-120223051D01*
X72215102Y-120225893D01*
X72195365Y-120245630D01*
X72192885Y-120248827D01*
X72185182Y-120257847D01*
X72154914Y-120290079D01*
X72151095Y-120297025D01*
X72151093Y-120297028D01*
X72145152Y-120307834D01*
X72134301Y-120324353D01*
X72121886Y-120340359D01*
X72118741Y-120347628D01*
X72118738Y-120347632D01*
X72104326Y-120380937D01*
X72099109Y-120391587D01*
X72077805Y-120430340D01*
X72075834Y-120438015D01*
X72075834Y-120438016D01*
X72072767Y-120449962D01*
X72066363Y-120468666D01*
X72058319Y-120487255D01*
X72057080Y-120495078D01*
X72057077Y-120495088D01*
X72051401Y-120530924D01*
X72048995Y-120542544D01*
X72038000Y-120585370D01*
X72038000Y-120605624D01*
X72036449Y-120625334D01*
X72033280Y-120645343D01*
X72034026Y-120653235D01*
X72037441Y-120689361D01*
X72038000Y-120701219D01*
X72038000Y-122471633D01*
X72037473Y-122482816D01*
X72035798Y-122490309D01*
X72036047Y-122498235D01*
X72036047Y-122498236D01*
X72037938Y-122558386D01*
X72038000Y-122562345D01*
X72038000Y-122590256D01*
X72038497Y-122594190D01*
X72038497Y-122594191D01*
X72038505Y-122594256D01*
X72039438Y-122606093D01*
X72040827Y-122650289D01*
X72046478Y-122669739D01*
X72050487Y-122689100D01*
X72053026Y-122709197D01*
X72055945Y-122716568D01*
X72055945Y-122716570D01*
X72069304Y-122750312D01*
X72073149Y-122761542D01*
X72085482Y-122803993D01*
X72089515Y-122810812D01*
X72089517Y-122810817D01*
X72095793Y-122821428D01*
X72104488Y-122839176D01*
X72111948Y-122858017D01*
X72116610Y-122864433D01*
X72116610Y-122864434D01*
X72137936Y-122893787D01*
X72144452Y-122903707D01*
X72157335Y-122925490D01*
X72166958Y-122941762D01*
X72181279Y-122956083D01*
X72194119Y-122971116D01*
X72206028Y-122987507D01*
X72212134Y-122992558D01*
X72240105Y-123015698D01*
X72248884Y-123023688D01*
X74918643Y-125693447D01*
X74926187Y-125701737D01*
X74930300Y-125708218D01*
X74936077Y-125713643D01*
X74979967Y-125754858D01*
X74982809Y-125757613D01*
X75002531Y-125777335D01*
X75005655Y-125779758D01*
X75005659Y-125779762D01*
X75005724Y-125779812D01*
X75014745Y-125787517D01*
X75046979Y-125817786D01*
X75053927Y-125821605D01*
X75053929Y-125821607D01*
X75064732Y-125827546D01*
X75081259Y-125838402D01*
X75090998Y-125845957D01*
X75091000Y-125845958D01*
X75097260Y-125850814D01*
X75137840Y-125868374D01*
X75148488Y-125873591D01*
X75159386Y-125879582D01*
X75187240Y-125894895D01*
X75194916Y-125896866D01*
X75194919Y-125896867D01*
X75206862Y-125899933D01*
X75225567Y-125906337D01*
X75244155Y-125914381D01*
X75251978Y-125915620D01*
X75251988Y-125915623D01*
X75287824Y-125921299D01*
X75299444Y-125923705D01*
X75334589Y-125932728D01*
X75342270Y-125934700D01*
X75362524Y-125934700D01*
X75382234Y-125936251D01*
X75402243Y-125939420D01*
X75410135Y-125938674D01*
X75446261Y-125935259D01*
X75458119Y-125934700D01*
X75520600Y-125934700D01*
X75588721Y-125954702D01*
X75607947Y-125971043D01*
X75608220Y-125970740D01*
X75613132Y-125975163D01*
X75617547Y-125980066D01*
X75622886Y-125983945D01*
X75762404Y-126085311D01*
X75772048Y-126092318D01*
X75778076Y-126095002D01*
X75778078Y-126095003D01*
X75909317Y-126153434D01*
X75946512Y-126169994D01*
X76012786Y-126184081D01*
X76126856Y-126208328D01*
X76126861Y-126208328D01*
X76133313Y-126209700D01*
X76324287Y-126209700D01*
X76330739Y-126208328D01*
X76330744Y-126208328D01*
X76414949Y-126190429D01*
X76419903Y-126189376D01*
X76490694Y-126194778D01*
X76547326Y-126237595D01*
X76571820Y-126304232D01*
X76572100Y-126312623D01*
X76572100Y-128098033D01*
X76571573Y-128109216D01*
X76569898Y-128116709D01*
X76570147Y-128124635D01*
X76570147Y-128124636D01*
X76572038Y-128184786D01*
X76572100Y-128188745D01*
X76572100Y-128216656D01*
X76572597Y-128220590D01*
X76572597Y-128220591D01*
X76572605Y-128220656D01*
X76573538Y-128232493D01*
X76574927Y-128276689D01*
X76580578Y-128296139D01*
X76584587Y-128315500D01*
X76585747Y-128324678D01*
X76587126Y-128335597D01*
X76590045Y-128342968D01*
X76590045Y-128342970D01*
X76603404Y-128376712D01*
X76607249Y-128387942D01*
X76619582Y-128430393D01*
X76623615Y-128437212D01*
X76623617Y-128437217D01*
X76629893Y-128447828D01*
X76638588Y-128465576D01*
X76646048Y-128484417D01*
X76650710Y-128490833D01*
X76650710Y-128490834D01*
X76672036Y-128520187D01*
X76678552Y-128530107D01*
X76692312Y-128553373D01*
X76701058Y-128568162D01*
X76715379Y-128582483D01*
X76728219Y-128597516D01*
X76740128Y-128613907D01*
X76756245Y-128627240D01*
X76774205Y-128642098D01*
X76782984Y-128650088D01*
X77350443Y-129217547D01*
X77357987Y-129225837D01*
X77362100Y-129232318D01*
X77367877Y-129237743D01*
X77411767Y-129278958D01*
X77414609Y-129281713D01*
X77434330Y-129301434D01*
X77437525Y-129303912D01*
X77446547Y-129311618D01*
X77478779Y-129341886D01*
X77485728Y-129345706D01*
X77496532Y-129351646D01*
X77513056Y-129362499D01*
X77529059Y-129374913D01*
X77569643Y-129392476D01*
X77580273Y-129397683D01*
X77619040Y-129418995D01*
X77626717Y-129420966D01*
X77626722Y-129420968D01*
X77638658Y-129424032D01*
X77657366Y-129430437D01*
X77675955Y-129438481D01*
X77683780Y-129439720D01*
X77683782Y-129439721D01*
X77719619Y-129445397D01*
X77731240Y-129447804D01*
X77763059Y-129455973D01*
X77774070Y-129458800D01*
X77794331Y-129458800D01*
X77814040Y-129460351D01*
X77834043Y-129463519D01*
X77841935Y-129462773D01*
X77847162Y-129462279D01*
X77878054Y-129459359D01*
X77889911Y-129458800D01*
X79768733Y-129458800D01*
X79779916Y-129459327D01*
X79787409Y-129461002D01*
X79795335Y-129460753D01*
X79795336Y-129460753D01*
X79855486Y-129458862D01*
X79859445Y-129458800D01*
X79887356Y-129458800D01*
X79891291Y-129458303D01*
X79891356Y-129458295D01*
X79903193Y-129457362D01*
X79935451Y-129456348D01*
X79939470Y-129456222D01*
X79947389Y-129455973D01*
X79966843Y-129450321D01*
X79986200Y-129446313D01*
X79998430Y-129444768D01*
X79998431Y-129444768D01*
X80006297Y-129443774D01*
X80013668Y-129440855D01*
X80013670Y-129440855D01*
X80047412Y-129427496D01*
X80058642Y-129423651D01*
X80093483Y-129413529D01*
X80093484Y-129413529D01*
X80101093Y-129411318D01*
X80107912Y-129407285D01*
X80107917Y-129407283D01*
X80118528Y-129401007D01*
X80136276Y-129392312D01*
X80155117Y-129384852D01*
X80175487Y-129370053D01*
X80190887Y-129358864D01*
X80200807Y-129352348D01*
X80232035Y-129333880D01*
X80232038Y-129333878D01*
X80238862Y-129329842D01*
X80253183Y-129315521D01*
X80268217Y-129302680D01*
X80269932Y-129301434D01*
X80284607Y-129290772D01*
X80312798Y-129256695D01*
X80320788Y-129247916D01*
X80606947Y-128961757D01*
X80615237Y-128954213D01*
X80621718Y-128950100D01*
X80660357Y-128908954D01*
X80721569Y-128872988D01*
X80792509Y-128875825D01*
X80800663Y-128879141D01*
X80801000Y-128879338D01*
X80803417Y-128880261D01*
X80803422Y-128880263D01*
X80877651Y-128908608D01*
X81009692Y-128959030D01*
X81014760Y-128960061D01*
X81014763Y-128960062D01*
X81109862Y-128979410D01*
X81228597Y-129003567D01*
X81233772Y-129003757D01*
X81233774Y-129003757D01*
X81446673Y-129011564D01*
X81446677Y-129011564D01*
X81451837Y-129011753D01*
X81456957Y-129011097D01*
X81456959Y-129011097D01*
X81668288Y-128984025D01*
X81668289Y-128984025D01*
X81673416Y-128983368D01*
X81678366Y-128981883D01*
X81882429Y-128920661D01*
X81882434Y-128920659D01*
X81887384Y-128919174D01*
X82087994Y-128820896D01*
X82269860Y-128691173D01*
X82428096Y-128533489D01*
X82437655Y-128520187D01*
X82558453Y-128352077D01*
X82559776Y-128353028D01*
X82606645Y-128309857D01*
X82676580Y-128297625D01*
X82742026Y-128325144D01*
X82769875Y-128356994D01*
X82829987Y-128455088D01*
X82976250Y-128623938D01*
X83148126Y-128766632D01*
X83341000Y-128879338D01*
X83345825Y-128881180D01*
X83345826Y-128881181D01*
X83418556Y-128908954D01*
X83549692Y-128959030D01*
X83554760Y-128960061D01*
X83554763Y-128960062D01*
X83649862Y-128979410D01*
X83768597Y-129003567D01*
X83773772Y-129003757D01*
X83773774Y-129003757D01*
X83986673Y-129011564D01*
X83986677Y-129011564D01*
X83991837Y-129011753D01*
X83996957Y-129011097D01*
X83996959Y-129011097D01*
X84208288Y-128984025D01*
X84208289Y-128984025D01*
X84213416Y-128983368D01*
X84218366Y-128981883D01*
X84422429Y-128920661D01*
X84422434Y-128920659D01*
X84427384Y-128919174D01*
X84627994Y-128820896D01*
X84809860Y-128691173D01*
X84968096Y-128533489D01*
X84977655Y-128520187D01*
X85098453Y-128352077D01*
X85099776Y-128353028D01*
X85146645Y-128309857D01*
X85216580Y-128297625D01*
X85282026Y-128325144D01*
X85309875Y-128356994D01*
X85369987Y-128455088D01*
X85516250Y-128623938D01*
X85688126Y-128766632D01*
X85881000Y-128879338D01*
X85885825Y-128881180D01*
X85885826Y-128881181D01*
X85958556Y-128908954D01*
X86089692Y-128959030D01*
X86094760Y-128960061D01*
X86094763Y-128960062D01*
X86189862Y-128979410D01*
X86308597Y-129003567D01*
X86313772Y-129003757D01*
X86313774Y-129003757D01*
X86526673Y-129011564D01*
X86526677Y-129011564D01*
X86531837Y-129011753D01*
X86536957Y-129011097D01*
X86536959Y-129011097D01*
X86748288Y-128984025D01*
X86748289Y-128984025D01*
X86753416Y-128983368D01*
X86758366Y-128981883D01*
X86962429Y-128920661D01*
X86962434Y-128920659D01*
X86967384Y-128919174D01*
X87167994Y-128820896D01*
X87349860Y-128691173D01*
X87508096Y-128533489D01*
X87517655Y-128520187D01*
X87638453Y-128352077D01*
X87639776Y-128353028D01*
X87686645Y-128309857D01*
X87756580Y-128297625D01*
X87822026Y-128325144D01*
X87849875Y-128356994D01*
X87909987Y-128455088D01*
X88056250Y-128623938D01*
X88228126Y-128766632D01*
X88421000Y-128879338D01*
X88425825Y-128881180D01*
X88425826Y-128881181D01*
X88498556Y-128908954D01*
X88629692Y-128959030D01*
X88634760Y-128960061D01*
X88634763Y-128960062D01*
X88729862Y-128979410D01*
X88848597Y-129003567D01*
X88853772Y-129003757D01*
X88853774Y-129003757D01*
X89066673Y-129011564D01*
X89066677Y-129011564D01*
X89071837Y-129011753D01*
X89076957Y-129011097D01*
X89076959Y-129011097D01*
X89288288Y-128984025D01*
X89288289Y-128984025D01*
X89293416Y-128983368D01*
X89298366Y-128981883D01*
X89502429Y-128920661D01*
X89502434Y-128920659D01*
X89507384Y-128919174D01*
X89707994Y-128820896D01*
X89889860Y-128691173D01*
X90048096Y-128533489D01*
X90057655Y-128520187D01*
X90178453Y-128352077D01*
X90179776Y-128353028D01*
X90226645Y-128309857D01*
X90296580Y-128297625D01*
X90362026Y-128325144D01*
X90389875Y-128356994D01*
X90449987Y-128455088D01*
X90596250Y-128623938D01*
X90768126Y-128766632D01*
X90961000Y-128879338D01*
X90965825Y-128881180D01*
X90965826Y-128881181D01*
X91038556Y-128908954D01*
X91169692Y-128959030D01*
X91174760Y-128960061D01*
X91174763Y-128960062D01*
X91269862Y-128979410D01*
X91388597Y-129003567D01*
X91393772Y-129003757D01*
X91393774Y-129003757D01*
X91606673Y-129011564D01*
X91606677Y-129011564D01*
X91611837Y-129011753D01*
X91616957Y-129011097D01*
X91616959Y-129011097D01*
X91828288Y-128984025D01*
X91828289Y-128984025D01*
X91833416Y-128983368D01*
X91838366Y-128981883D01*
X92042429Y-128920661D01*
X92042434Y-128920659D01*
X92047384Y-128919174D01*
X92247994Y-128820896D01*
X92429860Y-128691173D01*
X92588096Y-128533489D01*
X92597655Y-128520187D01*
X92718453Y-128352077D01*
X92719776Y-128353028D01*
X92766645Y-128309857D01*
X92836580Y-128297625D01*
X92902026Y-128325144D01*
X92929875Y-128356994D01*
X92989987Y-128455088D01*
X93136250Y-128623938D01*
X93308126Y-128766632D01*
X93501000Y-128879338D01*
X93505825Y-128881180D01*
X93505826Y-128881181D01*
X93578556Y-128908954D01*
X93709692Y-128959030D01*
X93714760Y-128960061D01*
X93714763Y-128960062D01*
X93809862Y-128979410D01*
X93928597Y-129003567D01*
X93933772Y-129003757D01*
X93933774Y-129003757D01*
X94146673Y-129011564D01*
X94146677Y-129011564D01*
X94151837Y-129011753D01*
X94156957Y-129011097D01*
X94156959Y-129011097D01*
X94368288Y-128984025D01*
X94368289Y-128984025D01*
X94373416Y-128983368D01*
X94378366Y-128981883D01*
X94582429Y-128920661D01*
X94582434Y-128920659D01*
X94587384Y-128919174D01*
X94787994Y-128820896D01*
X94969860Y-128691173D01*
X95128096Y-128533489D01*
X95137655Y-128520187D01*
X95258453Y-128352077D01*
X95259640Y-128352930D01*
X95306960Y-128309362D01*
X95376897Y-128297145D01*
X95442338Y-128324678D01*
X95470166Y-128356511D01*
X95527694Y-128450388D01*
X95533777Y-128458699D01*
X95673213Y-128619667D01*
X95680580Y-128626883D01*
X95844434Y-128762916D01*
X95852881Y-128768831D01*
X96036756Y-128876279D01*
X96046042Y-128880729D01*
X96245001Y-128956703D01*
X96254899Y-128959579D01*
X96358250Y-128980606D01*
X96372299Y-128979410D01*
X96376000Y-128969065D01*
X96376000Y-128968517D01*
X96884000Y-128968517D01*
X96888064Y-128982359D01*
X96901478Y-128984393D01*
X96908184Y-128983534D01*
X96918262Y-128981392D01*
X97122255Y-128920191D01*
X97131842Y-128916433D01*
X97323095Y-128822739D01*
X97331945Y-128817464D01*
X97505328Y-128693792D01*
X97513200Y-128687139D01*
X97664052Y-128536812D01*
X97670730Y-128528965D01*
X97798022Y-128351819D01*
X97799279Y-128352722D01*
X97846373Y-128309362D01*
X97916311Y-128297145D01*
X97981751Y-128324678D01*
X98009579Y-128356511D01*
X98069987Y-128455088D01*
X98216250Y-128623938D01*
X98388126Y-128766632D01*
X98581000Y-128879338D01*
X98585825Y-128881180D01*
X98585826Y-128881181D01*
X98658556Y-128908954D01*
X98789692Y-128959030D01*
X98794760Y-128960061D01*
X98794763Y-128960062D01*
X98889862Y-128979410D01*
X99008597Y-129003567D01*
X99013772Y-129003757D01*
X99013774Y-129003757D01*
X99226673Y-129011564D01*
X99226677Y-129011564D01*
X99231837Y-129011753D01*
X99236957Y-129011097D01*
X99236959Y-129011097D01*
X99448288Y-128984025D01*
X99448289Y-128984025D01*
X99453416Y-128983368D01*
X99458366Y-128981883D01*
X99662429Y-128920661D01*
X99662434Y-128920659D01*
X99667384Y-128919174D01*
X99867994Y-128820896D01*
X100049860Y-128691173D01*
X100208096Y-128533489D01*
X100217655Y-128520187D01*
X100335435Y-128356277D01*
X100338453Y-128352077D01*
X100351995Y-128324678D01*
X100435136Y-128156453D01*
X100435137Y-128156451D01*
X100437430Y-128151811D01*
X100502370Y-127938069D01*
X100531529Y-127716590D01*
X100533156Y-127650000D01*
X100514852Y-127427361D01*
X100460431Y-127210702D01*
X100371354Y-127005840D01*
X100250014Y-126818277D01*
X100099670Y-126653051D01*
X100095619Y-126649852D01*
X100095615Y-126649848D01*
X99928414Y-126517800D01*
X99928410Y-126517798D01*
X99924359Y-126514598D01*
X99888028Y-126494542D01*
X99865014Y-126481838D01*
X99728789Y-126406638D01*
X99723920Y-126404914D01*
X99723916Y-126404912D01*
X99523087Y-126333795D01*
X99523083Y-126333794D01*
X99518212Y-126332069D01*
X99513119Y-126331162D01*
X99513116Y-126331161D01*
X99303373Y-126293800D01*
X99303367Y-126293799D01*
X99298284Y-126292894D01*
X99224452Y-126291992D01*
X99080081Y-126290228D01*
X99080079Y-126290228D01*
X99074911Y-126290165D01*
X98854091Y-126323955D01*
X98641756Y-126393357D01*
X98443607Y-126496507D01*
X98439474Y-126499610D01*
X98439471Y-126499612D01*
X98269100Y-126627530D01*
X98264965Y-126630635D01*
X98110629Y-126792138D01*
X98003204Y-126949618D01*
X98002898Y-126950066D01*
X97947987Y-126995069D01*
X97877462Y-127003240D01*
X97813715Y-126971986D01*
X97793018Y-126947502D01*
X97712426Y-126822926D01*
X97706136Y-126814757D01*
X97562806Y-126657240D01*
X97555273Y-126650215D01*
X97388139Y-126518222D01*
X97379552Y-126512517D01*
X97193117Y-126409599D01*
X97183705Y-126405369D01*
X96982959Y-126334280D01*
X96972988Y-126331646D01*
X96901837Y-126318972D01*
X96888540Y-126320432D01*
X96884000Y-126334989D01*
X96884000Y-128968517D01*
X96376000Y-128968517D01*
X96376000Y-126333102D01*
X96372082Y-126319758D01*
X96357806Y-126317771D01*
X96319324Y-126323660D01*
X96309288Y-126326051D01*
X96106868Y-126392212D01*
X96097359Y-126396209D01*
X95908463Y-126494542D01*
X95899738Y-126500036D01*
X95729433Y-126627905D01*
X95721726Y-126634748D01*
X95574590Y-126788717D01*
X95568109Y-126796722D01*
X95463498Y-126950074D01*
X95408587Y-126995076D01*
X95338062Y-127003247D01*
X95274315Y-126971993D01*
X95253618Y-126947509D01*
X95172822Y-126822617D01*
X95172820Y-126822614D01*
X95170014Y-126818277D01*
X95019670Y-126653051D01*
X95015619Y-126649852D01*
X95015615Y-126649848D01*
X94848414Y-126517800D01*
X94848410Y-126517798D01*
X94844359Y-126514598D01*
X94808028Y-126494542D01*
X94785014Y-126481838D01*
X94648789Y-126406638D01*
X94643920Y-126404914D01*
X94643916Y-126404912D01*
X94443087Y-126333795D01*
X94443083Y-126333794D01*
X94438212Y-126332069D01*
X94433119Y-126331162D01*
X94433116Y-126331161D01*
X94223373Y-126293800D01*
X94223367Y-126293799D01*
X94218284Y-126292894D01*
X94144452Y-126291992D01*
X94000081Y-126290228D01*
X94000079Y-126290228D01*
X93994911Y-126290165D01*
X93774091Y-126323955D01*
X93561756Y-126393357D01*
X93363607Y-126496507D01*
X93359474Y-126499610D01*
X93359471Y-126499612D01*
X93189100Y-126627530D01*
X93184965Y-126630635D01*
X93030629Y-126792138D01*
X92923201Y-126949621D01*
X92868293Y-126994621D01*
X92797768Y-127002792D01*
X92734021Y-126971538D01*
X92713324Y-126947054D01*
X92632822Y-126822617D01*
X92632820Y-126822614D01*
X92630014Y-126818277D01*
X92479670Y-126653051D01*
X92475619Y-126649852D01*
X92475615Y-126649848D01*
X92308414Y-126517800D01*
X92308410Y-126517798D01*
X92304359Y-126514598D01*
X92268028Y-126494542D01*
X92245014Y-126481838D01*
X92108789Y-126406638D01*
X92103920Y-126404914D01*
X92103916Y-126404912D01*
X91903087Y-126333795D01*
X91903083Y-126333794D01*
X91898212Y-126332069D01*
X91893119Y-126331162D01*
X91893116Y-126331161D01*
X91683373Y-126293800D01*
X91683367Y-126293799D01*
X91678284Y-126292894D01*
X91604452Y-126291992D01*
X91460081Y-126290228D01*
X91460079Y-126290228D01*
X91454911Y-126290165D01*
X91234091Y-126323955D01*
X91021756Y-126393357D01*
X90823607Y-126496507D01*
X90819474Y-126499610D01*
X90819471Y-126499612D01*
X90649100Y-126627530D01*
X90644965Y-126630635D01*
X90490629Y-126792138D01*
X90383201Y-126949621D01*
X90328293Y-126994621D01*
X90257768Y-127002792D01*
X90194021Y-126971538D01*
X90173324Y-126947054D01*
X90092822Y-126822617D01*
X90092820Y-126822614D01*
X90090014Y-126818277D01*
X89939670Y-126653051D01*
X89935619Y-126649852D01*
X89935615Y-126649848D01*
X89768414Y-126517800D01*
X89768410Y-126517798D01*
X89764359Y-126514598D01*
X89728028Y-126494542D01*
X89705014Y-126481838D01*
X89568789Y-126406638D01*
X89563920Y-126404914D01*
X89563916Y-126404912D01*
X89363087Y-126333795D01*
X89363083Y-126333794D01*
X89358212Y-126332069D01*
X89353119Y-126331162D01*
X89353116Y-126331161D01*
X89143373Y-126293800D01*
X89143367Y-126293799D01*
X89138284Y-126292894D01*
X89064452Y-126291992D01*
X88920081Y-126290228D01*
X88920079Y-126290228D01*
X88914911Y-126290165D01*
X88694091Y-126323955D01*
X88481756Y-126393357D01*
X88283607Y-126496507D01*
X88279474Y-126499610D01*
X88279471Y-126499612D01*
X88109100Y-126627530D01*
X88104965Y-126630635D01*
X87950629Y-126792138D01*
X87843201Y-126949621D01*
X87788293Y-126994621D01*
X87717768Y-127002792D01*
X87654021Y-126971538D01*
X87633324Y-126947054D01*
X87552822Y-126822617D01*
X87552820Y-126822614D01*
X87550014Y-126818277D01*
X87399670Y-126653051D01*
X87395619Y-126649852D01*
X87395615Y-126649848D01*
X87228414Y-126517800D01*
X87228410Y-126517798D01*
X87224359Y-126514598D01*
X87188028Y-126494542D01*
X87165014Y-126481838D01*
X87028789Y-126406638D01*
X87023920Y-126404914D01*
X87023916Y-126404912D01*
X86823087Y-126333795D01*
X86823083Y-126333794D01*
X86818212Y-126332069D01*
X86813119Y-126331162D01*
X86813116Y-126331161D01*
X86603373Y-126293800D01*
X86603367Y-126293799D01*
X86598284Y-126292894D01*
X86524452Y-126291992D01*
X86380081Y-126290228D01*
X86380079Y-126290228D01*
X86374911Y-126290165D01*
X86154091Y-126323955D01*
X85941756Y-126393357D01*
X85743607Y-126496507D01*
X85739474Y-126499610D01*
X85739471Y-126499612D01*
X85569100Y-126627530D01*
X85564965Y-126630635D01*
X85410629Y-126792138D01*
X85303201Y-126949621D01*
X85248293Y-126994621D01*
X85177768Y-127002792D01*
X85114021Y-126971538D01*
X85093324Y-126947054D01*
X85012822Y-126822617D01*
X85012820Y-126822614D01*
X85010014Y-126818277D01*
X84859670Y-126653051D01*
X84855612Y-126649846D01*
X84852443Y-126647343D01*
X84811381Y-126589425D01*
X84808151Y-126518502D01*
X84843777Y-126457092D01*
X84848770Y-126452665D01*
X84855018Y-126448700D01*
X84901659Y-126399032D01*
X84904413Y-126396191D01*
X84924135Y-126376469D01*
X84926612Y-126373276D01*
X84934317Y-126364255D01*
X84948751Y-126348884D01*
X84964586Y-126332021D01*
X84968407Y-126325071D01*
X84974346Y-126314268D01*
X84985202Y-126297741D01*
X84992757Y-126288002D01*
X84992758Y-126288000D01*
X84997614Y-126281740D01*
X85015174Y-126241160D01*
X85020391Y-126230512D01*
X85037875Y-126198709D01*
X85037876Y-126198707D01*
X85041695Y-126191760D01*
X85044645Y-126180273D01*
X85046733Y-126172138D01*
X85053137Y-126153434D01*
X85058033Y-126142120D01*
X85058033Y-126142119D01*
X85061181Y-126134845D01*
X85062420Y-126127022D01*
X85062423Y-126127012D01*
X85068099Y-126091176D01*
X85070505Y-126079556D01*
X85079528Y-126044411D01*
X85079528Y-126044410D01*
X85081500Y-126036730D01*
X85081500Y-126016476D01*
X85083051Y-125996765D01*
X85084980Y-125984586D01*
X85086220Y-125976757D01*
X85082058Y-125932728D01*
X85081500Y-125920881D01*
X85081500Y-121695998D01*
X85101502Y-121627877D01*
X85155158Y-121581384D01*
X85225432Y-121571280D01*
X85258748Y-121580891D01*
X85405677Y-121646308D01*
X85405685Y-121646311D01*
X85411712Y-121648994D01*
X85505113Y-121668847D01*
X85592056Y-121687328D01*
X85592061Y-121687328D01*
X85598513Y-121688700D01*
X85789487Y-121688700D01*
X85795939Y-121687328D01*
X85795944Y-121687328D01*
X85882887Y-121668847D01*
X85976288Y-121648994D01*
X85982321Y-121646308D01*
X86144722Y-121574003D01*
X86144724Y-121574002D01*
X86150752Y-121571318D01*
X86305253Y-121459066D01*
X86333522Y-121427670D01*
X86428621Y-121322052D01*
X86428622Y-121322051D01*
X86433040Y-121317144D01*
X86528527Y-121151756D01*
X86587542Y-120970128D01*
X86591991Y-120927804D01*
X86606814Y-120786765D01*
X86607504Y-120780200D01*
X86587542Y-120590272D01*
X86528527Y-120408644D01*
X86518686Y-120391598D01*
X86436341Y-120248974D01*
X86433040Y-120243256D01*
X86359863Y-120161985D01*
X86329147Y-120097979D01*
X86327500Y-120077676D01*
X86327500Y-113513394D01*
X86347502Y-113445273D01*
X86364405Y-113424299D01*
X86777199Y-113011505D01*
X86839511Y-112977479D01*
X86866294Y-112974600D01*
X86922187Y-112974600D01*
X86928639Y-112973228D01*
X86928644Y-112973228D01*
X87015588Y-112954747D01*
X87108988Y-112934894D01*
X87115019Y-112932209D01*
X87277422Y-112859903D01*
X87277424Y-112859902D01*
X87283452Y-112857218D01*
X87437953Y-112744966D01*
X87498427Y-112677803D01*
X87561321Y-112607952D01*
X87561322Y-112607951D01*
X87565740Y-112603044D01*
X87661227Y-112437656D01*
X87720242Y-112256028D01*
X87724472Y-112215787D01*
X87739514Y-112072665D01*
X87740204Y-112066100D01*
X87720242Y-111876172D01*
X87661227Y-111694544D01*
X87565740Y-111529156D01*
X87556352Y-111518729D01*
X87469025Y-111421743D01*
X87438307Y-111357736D01*
X87447072Y-111287282D01*
X87473566Y-111248338D01*
X89036982Y-109684922D01*
X89099294Y-109650896D01*
X89170109Y-109655961D01*
X89219710Y-109689704D01*
X89280138Y-109756817D01*
X89310854Y-109820822D01*
X89312500Y-109841124D01*
X89312500Y-114952905D01*
X89292498Y-115021026D01*
X89275595Y-115042000D01*
X88013000Y-116304595D01*
X87950688Y-116338621D01*
X87923905Y-116341500D01*
X87868013Y-116341500D01*
X87861561Y-116342872D01*
X87861556Y-116342872D01*
X87774612Y-116361353D01*
X87681212Y-116381206D01*
X87675182Y-116383891D01*
X87675181Y-116383891D01*
X87512778Y-116456197D01*
X87512776Y-116456198D01*
X87506748Y-116458882D01*
X87501407Y-116462762D01*
X87501406Y-116462763D01*
X87489462Y-116471441D01*
X87352247Y-116571134D01*
X87347826Y-116576044D01*
X87347825Y-116576045D01*
X87245591Y-116689588D01*
X87224460Y-116713056D01*
X87181159Y-116788056D01*
X87137513Y-116863653D01*
X87128973Y-116878444D01*
X87069958Y-117060072D01*
X87069268Y-117066633D01*
X87069268Y-117066635D01*
X87062335Y-117132599D01*
X87049996Y-117250000D01*
X87069958Y-117439928D01*
X87128973Y-117621556D01*
X87224460Y-117786944D01*
X87228878Y-117791851D01*
X87228879Y-117791852D01*
X87344292Y-117920031D01*
X87352247Y-117928866D01*
X87506748Y-118041118D01*
X87512776Y-118043802D01*
X87512778Y-118043803D01*
X87675181Y-118116109D01*
X87681212Y-118118794D01*
X87774612Y-118138647D01*
X87861556Y-118157128D01*
X87861561Y-118157128D01*
X87868013Y-118158500D01*
X88058987Y-118158500D01*
X88065439Y-118157128D01*
X88065444Y-118157128D01*
X88152388Y-118138647D01*
X88245788Y-118118794D01*
X88251819Y-118116109D01*
X88414222Y-118043803D01*
X88414224Y-118043802D01*
X88420252Y-118041118D01*
X88574753Y-117928866D01*
X88582708Y-117920031D01*
X88698121Y-117791852D01*
X88698122Y-117791851D01*
X88702540Y-117786944D01*
X88798027Y-117621556D01*
X88857042Y-117439928D01*
X88874407Y-117274706D01*
X88901420Y-117209050D01*
X88910622Y-117198782D01*
X89802904Y-116306500D01*
X92008096Y-116306500D01*
X92008786Y-116313065D01*
X92025687Y-116473865D01*
X92028058Y-116496428D01*
X92087073Y-116678056D01*
X92182560Y-116843444D01*
X92186978Y-116848351D01*
X92186979Y-116848352D01*
X92294300Y-116967544D01*
X92310347Y-116985366D01*
X92367039Y-117026555D01*
X92427144Y-117070224D01*
X92464848Y-117097618D01*
X92470876Y-117100302D01*
X92470878Y-117100303D01*
X92615371Y-117164635D01*
X92639312Y-117175294D01*
X92720424Y-117192535D01*
X92819656Y-117213628D01*
X92819661Y-117213628D01*
X92826113Y-117215000D01*
X93017087Y-117215000D01*
X93023539Y-117213628D01*
X93023544Y-117213628D01*
X93122776Y-117192535D01*
X93203888Y-117175294D01*
X93227829Y-117164635D01*
X93372322Y-117100303D01*
X93372324Y-117100302D01*
X93378352Y-117097618D01*
X93416057Y-117070224D01*
X93476161Y-117026555D01*
X93532853Y-116985366D01*
X93548900Y-116967544D01*
X93656221Y-116848352D01*
X93656222Y-116848351D01*
X93660640Y-116843444D01*
X93756127Y-116678056D01*
X93815142Y-116496428D01*
X93817514Y-116473865D01*
X93834414Y-116313065D01*
X93835104Y-116306500D01*
X93828185Y-116240672D01*
X93815832Y-116123135D01*
X93815832Y-116123133D01*
X93815142Y-116116572D01*
X93756127Y-115934944D01*
X93660640Y-115769556D01*
X93587463Y-115688285D01*
X93556747Y-115624279D01*
X93555100Y-115603976D01*
X93555100Y-111364513D01*
X93575102Y-111296392D01*
X93587464Y-111280203D01*
X93657021Y-111202952D01*
X93657022Y-111202951D01*
X93661440Y-111198044D01*
X93723706Y-111090197D01*
X93753623Y-111038379D01*
X93753624Y-111038378D01*
X93756927Y-111032656D01*
X93815942Y-110851028D01*
X93835904Y-110661100D01*
X93815942Y-110471172D01*
X93756927Y-110289544D01*
X93661440Y-110124156D01*
X93637842Y-110097947D01*
X93538075Y-109987145D01*
X93538074Y-109987144D01*
X93533653Y-109982234D01*
X93403120Y-109887396D01*
X93384494Y-109873863D01*
X93384493Y-109873862D01*
X93379152Y-109869982D01*
X93373124Y-109867298D01*
X93373122Y-109867297D01*
X93210719Y-109794991D01*
X93210718Y-109794991D01*
X93204688Y-109792306D01*
X93086631Y-109767212D01*
X93024344Y-109753972D01*
X93024339Y-109753972D01*
X93017887Y-109752600D01*
X92826913Y-109752600D01*
X92820461Y-109753972D01*
X92820456Y-109753972D01*
X92758169Y-109767212D01*
X92640112Y-109792306D01*
X92634082Y-109794991D01*
X92634081Y-109794991D01*
X92471678Y-109867297D01*
X92471676Y-109867298D01*
X92465648Y-109869982D01*
X92460307Y-109873862D01*
X92460306Y-109873863D01*
X92441680Y-109887396D01*
X92311147Y-109982234D01*
X92306726Y-109987144D01*
X92306725Y-109987145D01*
X92206959Y-110097947D01*
X92183360Y-110124156D01*
X92087873Y-110289544D01*
X92028858Y-110471172D01*
X92008896Y-110661100D01*
X92028858Y-110851028D01*
X92087873Y-111032656D01*
X92091176Y-111038378D01*
X92091177Y-111038379D01*
X92121094Y-111090197D01*
X92183360Y-111198044D01*
X92187778Y-111202951D01*
X92187779Y-111202952D01*
X92255736Y-111278426D01*
X92286454Y-111342433D01*
X92288100Y-111362736D01*
X92288100Y-115603976D01*
X92268098Y-115672097D01*
X92255742Y-115688279D01*
X92182560Y-115769556D01*
X92087073Y-115934944D01*
X92028058Y-116116572D01*
X92027368Y-116123133D01*
X92027368Y-116123135D01*
X92015015Y-116240672D01*
X92008096Y-116306500D01*
X89802904Y-116306500D01*
X90338247Y-115771157D01*
X90346537Y-115763613D01*
X90353018Y-115759500D01*
X90371963Y-115739326D01*
X90399658Y-115709833D01*
X90402413Y-115706991D01*
X90422134Y-115687270D01*
X90424612Y-115684075D01*
X90432318Y-115675053D01*
X90457158Y-115648601D01*
X90462586Y-115642821D01*
X90472346Y-115625068D01*
X90483199Y-115608545D01*
X90490753Y-115598806D01*
X90495613Y-115592541D01*
X90513176Y-115551957D01*
X90518383Y-115541327D01*
X90539695Y-115502560D01*
X90541666Y-115494883D01*
X90541668Y-115494878D01*
X90544732Y-115482942D01*
X90551138Y-115464230D01*
X90556034Y-115452917D01*
X90559181Y-115445645D01*
X90566097Y-115401981D01*
X90568504Y-115390360D01*
X90577528Y-115355211D01*
X90577528Y-115355210D01*
X90579500Y-115347530D01*
X90579500Y-115327269D01*
X90581051Y-115307558D01*
X90582979Y-115295385D01*
X90584219Y-115287557D01*
X90580059Y-115243546D01*
X90579500Y-115231689D01*
X90579500Y-109841124D01*
X90599502Y-109773003D01*
X90611858Y-109756821D01*
X90685040Y-109675544D01*
X90780527Y-109510156D01*
X90839542Y-109328528D01*
X90840293Y-109321389D01*
X90858814Y-109145165D01*
X90859504Y-109138600D01*
X90848487Y-109033779D01*
X90840232Y-108955235D01*
X90840232Y-108955233D01*
X90839542Y-108948672D01*
X90780527Y-108767044D01*
X90772365Y-108752906D01*
X90695694Y-108620109D01*
X90685040Y-108601656D01*
X90628878Y-108539281D01*
X90561675Y-108464645D01*
X90561674Y-108464644D01*
X90557253Y-108459734D01*
X90549369Y-108454006D01*
X90505694Y-108422273D01*
X90462341Y-108366050D01*
X90456266Y-108295314D01*
X90490661Y-108231243D01*
X91382247Y-107339657D01*
X91390537Y-107332113D01*
X91397018Y-107328000D01*
X91443659Y-107278332D01*
X91446413Y-107275491D01*
X91466135Y-107255769D01*
X91468612Y-107252576D01*
X91476317Y-107243555D01*
X91501159Y-107217100D01*
X91506586Y-107211321D01*
X91510407Y-107204371D01*
X91516346Y-107193568D01*
X91527202Y-107177041D01*
X91534757Y-107167302D01*
X91534758Y-107167300D01*
X91539614Y-107161040D01*
X91557174Y-107120460D01*
X91562391Y-107109812D01*
X91579875Y-107078009D01*
X91579876Y-107078007D01*
X91583695Y-107071060D01*
X91588733Y-107051437D01*
X91595137Y-107032734D01*
X91600033Y-107021420D01*
X91600033Y-107021419D01*
X91603181Y-107014145D01*
X91604420Y-107006322D01*
X91604423Y-107006312D01*
X91610099Y-106970476D01*
X91612505Y-106958856D01*
X91621528Y-106923711D01*
X91621528Y-106923710D01*
X91623500Y-106916030D01*
X91623500Y-106895776D01*
X91625051Y-106876065D01*
X91626980Y-106863886D01*
X91628220Y-106856057D01*
X91624059Y-106812038D01*
X91623500Y-106800181D01*
X91623500Y-105030427D01*
X91643502Y-104962306D01*
X91684618Y-104922550D01*
X91687994Y-104920896D01*
X91869860Y-104791173D01*
X92028096Y-104633489D01*
X92038027Y-104619669D01*
X97442001Y-104619669D01*
X97442371Y-104626490D01*
X97447895Y-104677352D01*
X97451521Y-104692604D01*
X97496676Y-104813054D01*
X97505214Y-104828649D01*
X97581715Y-104930724D01*
X97594276Y-104943285D01*
X97696351Y-105019786D01*
X97711946Y-105028324D01*
X97832394Y-105073478D01*
X97847649Y-105077105D01*
X97898514Y-105082631D01*
X97905328Y-105083000D01*
X98527885Y-105083000D01*
X98543124Y-105078525D01*
X98544329Y-105077135D01*
X98546000Y-105069452D01*
X98546000Y-105064884D01*
X99054000Y-105064884D01*
X99058475Y-105080123D01*
X99059865Y-105081328D01*
X99067548Y-105082999D01*
X99694669Y-105082999D01*
X99701490Y-105082629D01*
X99752352Y-105077105D01*
X99767604Y-105073479D01*
X99888054Y-105028324D01*
X99903649Y-105019786D01*
X100005724Y-104943285D01*
X100018285Y-104930724D01*
X100094786Y-104828649D01*
X100103324Y-104813054D01*
X100144225Y-104703952D01*
X100186867Y-104647188D01*
X100253428Y-104622488D01*
X100322777Y-104637696D01*
X100357444Y-104665684D01*
X100382865Y-104695031D01*
X100382869Y-104695035D01*
X100386250Y-104698938D01*
X100558126Y-104841632D01*
X100751000Y-104954338D01*
X100959692Y-105034030D01*
X100964760Y-105035061D01*
X100964763Y-105035062D01*
X101063254Y-105055100D01*
X101178597Y-105078567D01*
X101183772Y-105078757D01*
X101183774Y-105078757D01*
X101396673Y-105086564D01*
X101396677Y-105086564D01*
X101401837Y-105086753D01*
X101406957Y-105086097D01*
X101406959Y-105086097D01*
X101618288Y-105059025D01*
X101618289Y-105059025D01*
X101623416Y-105058368D01*
X101638272Y-105053911D01*
X101832429Y-104995661D01*
X101832434Y-104995659D01*
X101837384Y-104994174D01*
X102037994Y-104895896D01*
X102219860Y-104766173D01*
X102232856Y-104753223D01*
X102338960Y-104647488D01*
X102378096Y-104608489D01*
X102413665Y-104558990D01*
X102508453Y-104427077D01*
X102509776Y-104428028D01*
X102556645Y-104384857D01*
X102626580Y-104372625D01*
X102692026Y-104400144D01*
X102719875Y-104431994D01*
X102779987Y-104530088D01*
X102926250Y-104698938D01*
X103098126Y-104841632D01*
X103169101Y-104883106D01*
X103184070Y-104891853D01*
X103232794Y-104943491D01*
X103246500Y-105000641D01*
X103246500Y-107808105D01*
X103226498Y-107876226D01*
X103209595Y-107897200D01*
X100168200Y-110938595D01*
X100105888Y-110972621D01*
X100079105Y-110975500D01*
X100023213Y-110975500D01*
X100016761Y-110976872D01*
X100016756Y-110976872D01*
X99929812Y-110995353D01*
X99836412Y-111015206D01*
X99830382Y-111017891D01*
X99830381Y-111017891D01*
X99667978Y-111090197D01*
X99667976Y-111090198D01*
X99661948Y-111092882D01*
X99507447Y-111205134D01*
X99503026Y-111210044D01*
X99503025Y-111210045D01*
X99407491Y-111316147D01*
X99379660Y-111347056D01*
X99284173Y-111512444D01*
X99225158Y-111694072D01*
X99224468Y-111700633D01*
X99224468Y-111700635D01*
X99214309Y-111797291D01*
X99205196Y-111884000D01*
X99205886Y-111890565D01*
X99216279Y-111989445D01*
X99225158Y-112073928D01*
X99284173Y-112255556D01*
X99379660Y-112420944D01*
X99384078Y-112425851D01*
X99384079Y-112425852D01*
X99422686Y-112468729D01*
X99507447Y-112562866D01*
X99589457Y-112622450D01*
X99654856Y-112669965D01*
X99661948Y-112675118D01*
X99667976Y-112677802D01*
X99667978Y-112677803D01*
X99818830Y-112744966D01*
X99836412Y-112752794D01*
X99929812Y-112772647D01*
X100016756Y-112791128D01*
X100016761Y-112791128D01*
X100023213Y-112792500D01*
X100214187Y-112792500D01*
X100220639Y-112791128D01*
X100220644Y-112791128D01*
X100307588Y-112772647D01*
X100400988Y-112752794D01*
X100418570Y-112744966D01*
X100569422Y-112677803D01*
X100569424Y-112677802D01*
X100575452Y-112675118D01*
X100582545Y-112669965D01*
X100647943Y-112622450D01*
X100729953Y-112562866D01*
X100814714Y-112468729D01*
X100853321Y-112425852D01*
X100853322Y-112425851D01*
X100857740Y-112420944D01*
X100953227Y-112255556D01*
X101012242Y-112073928D01*
X101029607Y-111908706D01*
X101056620Y-111843050D01*
X101065822Y-111832782D01*
X104272247Y-108626357D01*
X104280537Y-108618813D01*
X104287018Y-108614700D01*
X104333659Y-108565032D01*
X104336413Y-108562191D01*
X104356134Y-108542470D01*
X104358612Y-108539275D01*
X104366318Y-108530253D01*
X104391158Y-108503801D01*
X104396586Y-108498021D01*
X104406346Y-108480268D01*
X104417199Y-108463745D01*
X104420310Y-108459734D01*
X104429613Y-108447741D01*
X104447176Y-108407157D01*
X104452383Y-108396527D01*
X104473695Y-108357760D01*
X104475666Y-108350083D01*
X104475668Y-108350078D01*
X104478732Y-108338142D01*
X104485138Y-108319430D01*
X104490034Y-108308117D01*
X104493181Y-108300845D01*
X104500097Y-108257181D01*
X104502504Y-108245560D01*
X104511528Y-108210411D01*
X104511528Y-108210410D01*
X104513500Y-108202730D01*
X104513500Y-108182469D01*
X104515051Y-108162758D01*
X104516979Y-108150585D01*
X104518219Y-108142757D01*
X104514059Y-108098746D01*
X104513500Y-108086889D01*
X104513500Y-105005427D01*
X104533502Y-104937306D01*
X104574618Y-104897550D01*
X104577994Y-104895896D01*
X104759860Y-104766173D01*
X104772856Y-104753223D01*
X104878960Y-104647488D01*
X104918096Y-104608489D01*
X104953665Y-104558990D01*
X105048453Y-104427077D01*
X105049776Y-104428028D01*
X105096645Y-104384857D01*
X105166580Y-104372625D01*
X105232026Y-104400144D01*
X105259875Y-104431994D01*
X105319987Y-104530088D01*
X105466250Y-104698938D01*
X105638126Y-104841632D01*
X105709101Y-104883106D01*
X105724070Y-104891853D01*
X105772794Y-104943491D01*
X105786500Y-105000641D01*
X105786500Y-108752906D01*
X105766498Y-108821027D01*
X105749595Y-108842001D01*
X102873600Y-111717995D01*
X102811288Y-111752021D01*
X102784505Y-111754900D01*
X102728613Y-111754900D01*
X102722161Y-111756272D01*
X102722156Y-111756272D01*
X102635213Y-111774753D01*
X102541812Y-111794606D01*
X102535782Y-111797291D01*
X102535781Y-111797291D01*
X102373378Y-111869597D01*
X102373376Y-111869598D01*
X102367348Y-111872282D01*
X102362007Y-111876162D01*
X102362006Y-111876163D01*
X102342184Y-111890565D01*
X102212847Y-111984534D01*
X102208426Y-111989444D01*
X102208425Y-111989445D01*
X102126704Y-112080206D01*
X102085060Y-112126456D01*
X102054238Y-112179842D01*
X102008499Y-112259064D01*
X101989573Y-112291844D01*
X101930558Y-112473472D01*
X101929868Y-112480033D01*
X101929868Y-112480035D01*
X101921162Y-112562866D01*
X101910596Y-112663400D01*
X101911286Y-112669965D01*
X101924021Y-112791128D01*
X101930558Y-112853328D01*
X101989573Y-113034956D01*
X102085060Y-113200344D01*
X102212847Y-113342266D01*
X102367348Y-113454518D01*
X102373376Y-113457202D01*
X102373378Y-113457203D01*
X102499586Y-113513394D01*
X102541812Y-113532194D01*
X102635212Y-113552047D01*
X102722156Y-113570528D01*
X102722161Y-113570528D01*
X102728613Y-113571900D01*
X102919587Y-113571900D01*
X102926039Y-113570528D01*
X102926044Y-113570528D01*
X103012988Y-113552047D01*
X103106388Y-113532194D01*
X103148614Y-113513394D01*
X103274822Y-113457203D01*
X103274824Y-113457202D01*
X103280852Y-113454518D01*
X103435353Y-113342266D01*
X103563140Y-113200344D01*
X103658627Y-113034956D01*
X103717642Y-112853328D01*
X103735007Y-112688106D01*
X103762020Y-112622450D01*
X103771222Y-112612182D01*
X106812247Y-109571157D01*
X106820537Y-109563613D01*
X106827018Y-109559500D01*
X106873659Y-109509832D01*
X106876413Y-109506991D01*
X106896135Y-109487269D01*
X106898612Y-109484076D01*
X106906317Y-109475055D01*
X106919522Y-109460993D01*
X106936586Y-109442821D01*
X106940407Y-109435871D01*
X106946346Y-109425068D01*
X106957202Y-109408541D01*
X106964757Y-109398802D01*
X106964758Y-109398800D01*
X106969614Y-109392540D01*
X106987174Y-109351960D01*
X106992391Y-109341312D01*
X107009875Y-109309509D01*
X107009876Y-109309507D01*
X107013695Y-109302560D01*
X107018733Y-109282937D01*
X107025137Y-109264234D01*
X107030033Y-109252920D01*
X107030033Y-109252919D01*
X107033181Y-109245645D01*
X107034420Y-109237822D01*
X107034423Y-109237812D01*
X107040099Y-109201976D01*
X107042505Y-109190356D01*
X107051528Y-109155211D01*
X107051528Y-109155210D01*
X107053500Y-109147530D01*
X107053500Y-109127276D01*
X107055051Y-109107565D01*
X107056980Y-109095386D01*
X107058220Y-109087557D01*
X107054059Y-109043538D01*
X107053500Y-109031681D01*
X107053500Y-105005427D01*
X107073502Y-104937306D01*
X107114618Y-104897550D01*
X107117994Y-104895896D01*
X107299860Y-104766173D01*
X107312856Y-104753223D01*
X107418960Y-104647488D01*
X107458096Y-104608489D01*
X107493665Y-104558990D01*
X107585435Y-104431277D01*
X107588453Y-104427077D01*
X107609320Y-104384857D01*
X107685136Y-104231453D01*
X107685137Y-104231451D01*
X107687430Y-104226811D01*
X107743269Y-104043023D01*
X107750865Y-104018023D01*
X107750865Y-104018021D01*
X107752370Y-104013069D01*
X107781529Y-103791590D01*
X107783156Y-103725000D01*
X107764852Y-103502361D01*
X107710431Y-103285702D01*
X107621354Y-103080840D01*
X107518995Y-102922617D01*
X107502822Y-102897617D01*
X107502820Y-102897614D01*
X107500014Y-102893277D01*
X107349670Y-102728051D01*
X107345619Y-102724852D01*
X107345615Y-102724848D01*
X107178414Y-102592800D01*
X107178410Y-102592798D01*
X107174359Y-102589598D01*
X106978789Y-102481638D01*
X106973920Y-102479914D01*
X106973916Y-102479912D01*
X106773087Y-102408795D01*
X106773083Y-102408794D01*
X106768212Y-102407069D01*
X106763119Y-102406162D01*
X106763116Y-102406161D01*
X106553373Y-102368800D01*
X106553367Y-102368799D01*
X106548284Y-102367894D01*
X106474452Y-102366992D01*
X106330081Y-102365228D01*
X106330079Y-102365228D01*
X106324911Y-102365165D01*
X106104091Y-102398955D01*
X105891756Y-102468357D01*
X105861443Y-102484137D01*
X105704459Y-102565858D01*
X105693607Y-102571507D01*
X105689474Y-102574610D01*
X105689471Y-102574612D01*
X105573153Y-102661946D01*
X105514965Y-102705635D01*
X105489894Y-102731870D01*
X105377306Y-102849687D01*
X105360629Y-102867138D01*
X105253201Y-103024621D01*
X105198293Y-103069621D01*
X105127768Y-103077792D01*
X105064021Y-103046538D01*
X105043324Y-103022054D01*
X104962822Y-102897617D01*
X104962820Y-102897614D01*
X104960014Y-102893277D01*
X104809670Y-102728051D01*
X104805619Y-102724852D01*
X104805615Y-102724848D01*
X104638414Y-102592800D01*
X104638410Y-102592798D01*
X104634359Y-102589598D01*
X104438789Y-102481638D01*
X104433920Y-102479914D01*
X104433916Y-102479912D01*
X104233087Y-102408795D01*
X104233083Y-102408794D01*
X104228212Y-102407069D01*
X104223119Y-102406162D01*
X104223116Y-102406161D01*
X104013373Y-102368800D01*
X104013367Y-102368799D01*
X104008284Y-102367894D01*
X103934452Y-102366992D01*
X103790081Y-102365228D01*
X103790079Y-102365228D01*
X103784911Y-102365165D01*
X103564091Y-102398955D01*
X103351756Y-102468357D01*
X103321443Y-102484137D01*
X103164459Y-102565858D01*
X103153607Y-102571507D01*
X103149474Y-102574610D01*
X103149471Y-102574612D01*
X103033153Y-102661946D01*
X102974965Y-102705635D01*
X102949894Y-102731870D01*
X102837306Y-102849687D01*
X102820629Y-102867138D01*
X102713201Y-103024621D01*
X102658293Y-103069621D01*
X102587768Y-103077792D01*
X102524021Y-103046538D01*
X102503324Y-103022054D01*
X102422822Y-102897617D01*
X102422820Y-102897614D01*
X102420014Y-102893277D01*
X102269670Y-102728051D01*
X102265619Y-102724852D01*
X102265615Y-102724848D01*
X102098414Y-102592800D01*
X102098410Y-102592798D01*
X102094359Y-102589598D01*
X101898789Y-102481638D01*
X101893920Y-102479914D01*
X101893916Y-102479912D01*
X101693087Y-102408795D01*
X101693083Y-102408794D01*
X101688212Y-102407069D01*
X101683119Y-102406162D01*
X101683116Y-102406161D01*
X101473373Y-102368800D01*
X101473367Y-102368799D01*
X101468284Y-102367894D01*
X101394452Y-102366992D01*
X101250081Y-102365228D01*
X101250079Y-102365228D01*
X101244911Y-102365165D01*
X101024091Y-102398955D01*
X100811756Y-102468357D01*
X100781443Y-102484137D01*
X100624459Y-102565858D01*
X100613607Y-102571507D01*
X100609474Y-102574610D01*
X100609471Y-102574612D01*
X100493153Y-102661946D01*
X100434965Y-102705635D01*
X100431393Y-102709373D01*
X100353898Y-102790466D01*
X100292374Y-102825895D01*
X100221462Y-102822438D01*
X100163676Y-102781192D01*
X100144823Y-102747644D01*
X100103324Y-102636946D01*
X100094786Y-102621351D01*
X100018285Y-102519276D01*
X100005724Y-102506715D01*
X99903649Y-102430214D01*
X99888054Y-102421676D01*
X99767606Y-102376522D01*
X99752351Y-102372895D01*
X99701486Y-102367369D01*
X99694672Y-102367000D01*
X99072115Y-102367000D01*
X99056876Y-102371475D01*
X99055671Y-102372865D01*
X99054000Y-102380548D01*
X99054000Y-105064884D01*
X98546000Y-105064884D01*
X98546000Y-103997115D01*
X98541525Y-103981876D01*
X98540135Y-103980671D01*
X98532452Y-103979000D01*
X97460116Y-103979000D01*
X97444877Y-103983475D01*
X97443672Y-103984865D01*
X97442001Y-103992548D01*
X97442001Y-104619669D01*
X92038027Y-104619669D01*
X92158453Y-104452077D01*
X92173102Y-104422438D01*
X92255136Y-104256453D01*
X92255137Y-104256451D01*
X92257430Y-104251811D01*
X92322370Y-104038069D01*
X92351529Y-103816590D01*
X92353156Y-103750000D01*
X92334852Y-103527361D01*
X92316145Y-103452885D01*
X97442000Y-103452885D01*
X97446475Y-103468124D01*
X97447865Y-103469329D01*
X97455548Y-103471000D01*
X98527885Y-103471000D01*
X98543124Y-103466525D01*
X98544329Y-103465135D01*
X98546000Y-103457452D01*
X98546000Y-102385116D01*
X98541525Y-102369877D01*
X98540135Y-102368672D01*
X98532452Y-102367001D01*
X97905331Y-102367001D01*
X97898510Y-102367371D01*
X97847648Y-102372895D01*
X97832396Y-102376521D01*
X97711946Y-102421676D01*
X97696351Y-102430214D01*
X97594276Y-102506715D01*
X97581715Y-102519276D01*
X97505214Y-102621351D01*
X97496676Y-102636946D01*
X97451522Y-102757394D01*
X97447895Y-102772649D01*
X97442369Y-102823514D01*
X97442000Y-102830328D01*
X97442000Y-103452885D01*
X92316145Y-103452885D01*
X92280431Y-103310702D01*
X92191354Y-103105840D01*
X92083180Y-102938628D01*
X92072822Y-102922617D01*
X92072820Y-102922614D01*
X92070014Y-102918277D01*
X91919670Y-102753051D01*
X91915619Y-102749852D01*
X91915615Y-102749848D01*
X91748414Y-102617800D01*
X91748410Y-102617798D01*
X91744359Y-102614598D01*
X91548789Y-102506638D01*
X91543920Y-102504914D01*
X91543916Y-102504912D01*
X91343087Y-102433795D01*
X91343083Y-102433794D01*
X91338212Y-102432069D01*
X91333119Y-102431162D01*
X91333116Y-102431161D01*
X91123373Y-102393800D01*
X91123367Y-102393799D01*
X91118284Y-102392894D01*
X91044452Y-102391992D01*
X90900081Y-102390228D01*
X90900079Y-102390228D01*
X90894911Y-102390165D01*
X90674091Y-102423955D01*
X90461756Y-102493357D01*
X90263607Y-102596507D01*
X90259474Y-102599610D01*
X90259471Y-102599612D01*
X90089100Y-102727530D01*
X90084965Y-102730635D01*
X90057148Y-102759744D01*
X89954520Y-102867138D01*
X89930629Y-102892138D01*
X89823201Y-103049621D01*
X89768293Y-103094621D01*
X89697768Y-103102792D01*
X89634021Y-103071538D01*
X89613324Y-103047054D01*
X89532822Y-102922617D01*
X89532820Y-102922614D01*
X89530014Y-102918277D01*
X89379670Y-102753051D01*
X89375619Y-102749852D01*
X89375615Y-102749848D01*
X89208414Y-102617800D01*
X89208410Y-102617798D01*
X89204359Y-102614598D01*
X89008789Y-102506638D01*
X89003920Y-102504914D01*
X89003916Y-102504912D01*
X88803087Y-102433795D01*
X88803083Y-102433794D01*
X88798212Y-102432069D01*
X88793119Y-102431162D01*
X88793116Y-102431161D01*
X88583373Y-102393800D01*
X88583367Y-102393799D01*
X88578284Y-102392894D01*
X88504452Y-102391992D01*
X88360081Y-102390228D01*
X88360079Y-102390228D01*
X88354911Y-102390165D01*
X88134091Y-102423955D01*
X87921756Y-102493357D01*
X87723607Y-102596507D01*
X87719474Y-102599610D01*
X87719471Y-102599612D01*
X87549100Y-102727530D01*
X87544965Y-102730635D01*
X87517148Y-102759744D01*
X87414520Y-102867138D01*
X87390629Y-102892138D01*
X87283201Y-103049621D01*
X87228293Y-103094621D01*
X87157768Y-103102792D01*
X87094021Y-103071538D01*
X87073324Y-103047054D01*
X86992822Y-102922617D01*
X86992820Y-102922614D01*
X86990014Y-102918277D01*
X86839670Y-102753051D01*
X86835619Y-102749852D01*
X86835615Y-102749848D01*
X86668414Y-102617800D01*
X86668410Y-102617798D01*
X86664359Y-102614598D01*
X86468789Y-102506638D01*
X86463920Y-102504914D01*
X86463916Y-102504912D01*
X86263087Y-102433795D01*
X86263083Y-102433794D01*
X86258212Y-102432069D01*
X86253119Y-102431162D01*
X86253116Y-102431161D01*
X86043373Y-102393800D01*
X86043367Y-102393799D01*
X86038284Y-102392894D01*
X85964452Y-102391992D01*
X85820081Y-102390228D01*
X85820079Y-102390228D01*
X85814911Y-102390165D01*
X85594091Y-102423955D01*
X85381756Y-102493357D01*
X85183607Y-102596507D01*
X85179474Y-102599610D01*
X85179471Y-102599612D01*
X85009100Y-102727530D01*
X85004965Y-102730635D01*
X85001393Y-102734373D01*
X84923898Y-102815466D01*
X84862374Y-102850895D01*
X84791462Y-102847438D01*
X84733676Y-102806192D01*
X84714823Y-102772644D01*
X84673324Y-102661946D01*
X84664786Y-102646351D01*
X84588285Y-102544276D01*
X84575724Y-102531715D01*
X84473649Y-102455214D01*
X84458054Y-102446676D01*
X84337606Y-102401522D01*
X84322351Y-102397895D01*
X84271486Y-102392369D01*
X84264672Y-102392000D01*
X83642115Y-102392000D01*
X83626876Y-102396475D01*
X83625671Y-102397865D01*
X83624000Y-102405548D01*
X83624000Y-105089884D01*
X83628475Y-105105123D01*
X83629865Y-105106328D01*
X83637548Y-105107999D01*
X84264669Y-105107999D01*
X84271490Y-105107629D01*
X84322352Y-105102105D01*
X84337604Y-105098479D01*
X84458054Y-105053324D01*
X84473649Y-105044786D01*
X84575724Y-104968285D01*
X84588285Y-104955724D01*
X84664786Y-104853649D01*
X84673324Y-104838054D01*
X84714225Y-104728952D01*
X84756867Y-104672188D01*
X84823428Y-104647488D01*
X84892777Y-104662696D01*
X84927444Y-104690684D01*
X84952865Y-104720031D01*
X84952869Y-104720035D01*
X84956250Y-104723938D01*
X85128126Y-104866632D01*
X85321000Y-104979338D01*
X85325825Y-104981180D01*
X85325826Y-104981181D01*
X85376787Y-105000641D01*
X85529692Y-105059030D01*
X85534760Y-105060061D01*
X85534763Y-105060062D01*
X85633367Y-105080123D01*
X85748597Y-105103567D01*
X85753772Y-105103757D01*
X85753774Y-105103757D01*
X85966673Y-105111564D01*
X85966677Y-105111564D01*
X85971837Y-105111753D01*
X85976957Y-105111097D01*
X85976959Y-105111097D01*
X86188288Y-105084025D01*
X86188289Y-105084025D01*
X86193416Y-105083368D01*
X86208785Y-105078757D01*
X86402429Y-105020661D01*
X86402434Y-105020659D01*
X86407384Y-105019174D01*
X86607994Y-104920896D01*
X86789860Y-104791173D01*
X86948096Y-104633489D01*
X87025559Y-104525688D01*
X87078453Y-104452077D01*
X87079776Y-104453028D01*
X87126645Y-104409857D01*
X87196580Y-104397625D01*
X87262026Y-104425144D01*
X87289875Y-104456994D01*
X87349987Y-104555088D01*
X87496250Y-104723938D01*
X87531524Y-104753223D01*
X87571159Y-104812125D01*
X87572657Y-104883106D01*
X87540134Y-104939262D01*
X85555926Y-106923469D01*
X83573947Y-108905448D01*
X83565661Y-108912988D01*
X83559182Y-108917100D01*
X83553757Y-108922877D01*
X83512557Y-108966751D01*
X83509802Y-108969593D01*
X83490065Y-108989330D01*
X83487585Y-108992527D01*
X83479882Y-109001547D01*
X83449614Y-109033779D01*
X83445795Y-109040725D01*
X83445793Y-109040728D01*
X83439852Y-109051534D01*
X83429001Y-109068053D01*
X83416586Y-109084059D01*
X83413441Y-109091328D01*
X83413438Y-109091332D01*
X83399026Y-109124637D01*
X83393809Y-109135287D01*
X83372505Y-109174040D01*
X83370534Y-109181715D01*
X83370534Y-109181716D01*
X83367467Y-109193662D01*
X83361063Y-109212366D01*
X83353019Y-109230955D01*
X83351780Y-109238778D01*
X83351777Y-109238788D01*
X83346101Y-109274624D01*
X83343695Y-109286244D01*
X83332700Y-109329070D01*
X83332700Y-109349324D01*
X83331149Y-109369034D01*
X83327980Y-109389043D01*
X83328726Y-109396935D01*
X83332141Y-109433061D01*
X83332700Y-109444919D01*
X83332700Y-112131476D01*
X83312698Y-112199597D01*
X83300342Y-112215779D01*
X83227160Y-112297056D01*
X83131673Y-112462444D01*
X83072658Y-112644072D01*
X83071968Y-112650632D01*
X83071966Y-112650644D01*
X83071878Y-112651485D01*
X83071691Y-112651939D01*
X83070594Y-112657100D01*
X83069650Y-112656899D01*
X83044863Y-112717141D01*
X82986640Y-112757769D01*
X82972770Y-112761556D01*
X82816812Y-112794706D01*
X82810782Y-112797391D01*
X82810781Y-112797391D01*
X82648378Y-112869697D01*
X82648376Y-112869698D01*
X82642348Y-112872382D01*
X82487847Y-112984634D01*
X82360060Y-113126556D01*
X82264573Y-113291944D01*
X82205558Y-113473572D01*
X82204868Y-113480133D01*
X82204868Y-113480135D01*
X82199679Y-113529509D01*
X82185596Y-113663500D01*
X82186286Y-113670065D01*
X82204407Y-113842473D01*
X82205558Y-113853428D01*
X82264573Y-114035056D01*
X82360060Y-114200444D01*
X82364478Y-114205351D01*
X82364479Y-114205352D01*
X82448668Y-114298853D01*
X82487847Y-114342366D01*
X82586285Y-114413886D01*
X82635567Y-114449691D01*
X82642348Y-114454618D01*
X82648376Y-114457302D01*
X82648378Y-114457303D01*
X82774368Y-114513397D01*
X82816812Y-114532294D01*
X82910212Y-114552147D01*
X82997156Y-114570628D01*
X82997161Y-114570628D01*
X83003613Y-114572000D01*
X83194587Y-114572000D01*
X83201039Y-114570628D01*
X83201044Y-114570628D01*
X83287988Y-114552147D01*
X83381388Y-114532294D01*
X83423832Y-114513397D01*
X83549822Y-114457303D01*
X83549824Y-114457302D01*
X83555852Y-114454618D01*
X83562634Y-114449691D01*
X83694704Y-114353736D01*
X83710353Y-114342366D01*
X83714768Y-114337463D01*
X83719680Y-114333040D01*
X83720779Y-114334261D01*
X83774203Y-114301349D01*
X83807390Y-114296900D01*
X84083833Y-114296900D01*
X84095016Y-114297427D01*
X84102509Y-114299102D01*
X84110435Y-114298853D01*
X84110436Y-114298853D01*
X84170586Y-114296962D01*
X84174545Y-114296900D01*
X84202456Y-114296900D01*
X84206391Y-114296403D01*
X84206456Y-114296395D01*
X84218293Y-114295462D01*
X84250551Y-114294448D01*
X84254570Y-114294322D01*
X84262489Y-114294073D01*
X84281943Y-114288421D01*
X84301300Y-114284413D01*
X84313530Y-114282868D01*
X84313531Y-114282868D01*
X84321397Y-114281874D01*
X84328768Y-114278955D01*
X84328770Y-114278955D01*
X84362512Y-114265596D01*
X84373742Y-114261751D01*
X84408583Y-114251629D01*
X84408584Y-114251629D01*
X84416193Y-114249418D01*
X84423012Y-114245385D01*
X84423017Y-114245383D01*
X84433628Y-114239107D01*
X84451376Y-114230412D01*
X84470217Y-114222952D01*
X84505987Y-114196964D01*
X84515907Y-114190448D01*
X84547135Y-114171980D01*
X84547138Y-114171978D01*
X84553962Y-114167942D01*
X84568283Y-114153621D01*
X84583317Y-114140780D01*
X84593294Y-114133531D01*
X84599707Y-114128872D01*
X84627898Y-114094795D01*
X84635888Y-114086016D01*
X84845405Y-113876499D01*
X84907717Y-113842473D01*
X84978532Y-113847538D01*
X85035368Y-113890085D01*
X85060179Y-113956605D01*
X85060500Y-113965594D01*
X85060500Y-117818905D01*
X85040498Y-117887026D01*
X84986842Y-117933519D01*
X84916568Y-117943623D01*
X84851988Y-117914129D01*
X84845405Y-117908000D01*
X84208709Y-117271304D01*
X84174683Y-117208992D01*
X84179748Y-117138177D01*
X84204168Y-117097899D01*
X84317121Y-116972452D01*
X84317122Y-116972451D01*
X84321540Y-116967544D01*
X84417027Y-116802156D01*
X84476042Y-116620528D01*
X84481234Y-116571134D01*
X84495314Y-116437165D01*
X84496004Y-116430600D01*
X84490434Y-116377604D01*
X84476732Y-116247235D01*
X84476732Y-116247233D01*
X84476042Y-116240672D01*
X84417027Y-116059044D01*
X84321540Y-115893656D01*
X84292770Y-115861703D01*
X84198175Y-115756645D01*
X84198174Y-115756644D01*
X84193753Y-115751734D01*
X84084143Y-115672097D01*
X84044594Y-115643363D01*
X84044593Y-115643362D01*
X84039252Y-115639482D01*
X84033224Y-115636798D01*
X84033222Y-115636797D01*
X83870819Y-115564491D01*
X83870818Y-115564491D01*
X83864788Y-115561806D01*
X83768377Y-115541313D01*
X83684444Y-115523472D01*
X83684439Y-115523472D01*
X83677987Y-115522100D01*
X83487013Y-115522100D01*
X83480561Y-115523472D01*
X83480556Y-115523472D01*
X83396623Y-115541313D01*
X83300212Y-115561806D01*
X83294182Y-115564491D01*
X83294181Y-115564491D01*
X83131778Y-115636797D01*
X83131776Y-115636798D01*
X83125748Y-115639482D01*
X83120407Y-115643362D01*
X83120406Y-115643363D01*
X83080857Y-115672097D01*
X82971247Y-115751734D01*
X82970364Y-115752715D01*
X82908122Y-115782582D01*
X82837669Y-115773816D01*
X82798728Y-115747323D01*
X81231805Y-114180400D01*
X81197779Y-114118088D01*
X81194900Y-114091305D01*
X81194900Y-106666124D01*
X81214902Y-106598003D01*
X81227258Y-106581821D01*
X81300440Y-106500544D01*
X81395927Y-106335156D01*
X81454942Y-106153528D01*
X81474904Y-105963600D01*
X81454942Y-105773672D01*
X81395927Y-105592044D01*
X81300440Y-105426656D01*
X81229505Y-105347874D01*
X81177075Y-105289645D01*
X81177074Y-105289644D01*
X81172653Y-105284734D01*
X81018152Y-105172482D01*
X81012124Y-105169798D01*
X81012122Y-105169797D01*
X80849719Y-105097491D01*
X80849718Y-105097491D01*
X80843688Y-105094806D01*
X80743348Y-105073478D01*
X80663344Y-105056472D01*
X80663339Y-105056472D01*
X80656887Y-105055100D01*
X80465913Y-105055100D01*
X80459461Y-105056472D01*
X80459456Y-105056472D01*
X80379452Y-105073478D01*
X80279112Y-105094806D01*
X80273082Y-105097491D01*
X80273081Y-105097491D01*
X80110678Y-105169797D01*
X80110676Y-105169798D01*
X80104648Y-105172482D01*
X79950147Y-105284734D01*
X79945726Y-105289644D01*
X79945725Y-105289645D01*
X79893296Y-105347874D01*
X79822360Y-105426656D01*
X79726873Y-105592044D01*
X79667858Y-105773672D01*
X79647896Y-105963600D01*
X79667858Y-106153528D01*
X79726873Y-106335156D01*
X79822360Y-106500544D01*
X79895537Y-106581815D01*
X79926253Y-106645821D01*
X79927900Y-106666124D01*
X79927900Y-114327133D01*
X79927373Y-114338316D01*
X79925698Y-114345809D01*
X79925947Y-114353735D01*
X79925947Y-114353736D01*
X79927838Y-114413886D01*
X79927900Y-114417845D01*
X79927900Y-114445756D01*
X79928397Y-114449690D01*
X79928397Y-114449691D01*
X79928405Y-114449756D01*
X79929338Y-114461593D01*
X79930727Y-114505789D01*
X79936378Y-114525239D01*
X79940387Y-114544600D01*
X79942926Y-114564697D01*
X79945845Y-114572068D01*
X79945845Y-114572070D01*
X79959204Y-114605812D01*
X79963049Y-114617042D01*
X79975382Y-114659493D01*
X79979415Y-114666312D01*
X79979417Y-114666317D01*
X79985693Y-114676928D01*
X79994388Y-114694676D01*
X80001848Y-114713517D01*
X80006510Y-114719933D01*
X80006510Y-114719934D01*
X80027836Y-114749287D01*
X80034352Y-114759207D01*
X80039940Y-114768655D01*
X80056858Y-114797262D01*
X80071179Y-114811583D01*
X80084019Y-114826616D01*
X80095928Y-114843007D01*
X80102034Y-114848058D01*
X80130005Y-114871198D01*
X80138784Y-114879188D01*
X81601100Y-116341504D01*
X81635126Y-116403816D01*
X81630061Y-116474631D01*
X81601100Y-116519694D01*
X81419742Y-116701052D01*
X81411462Y-116708587D01*
X81404982Y-116712700D01*
X81358357Y-116762351D01*
X81355602Y-116765193D01*
X81335865Y-116784930D01*
X81333385Y-116788127D01*
X81325682Y-116797147D01*
X81295414Y-116829379D01*
X81291595Y-116836325D01*
X81291593Y-116836328D01*
X81285652Y-116847134D01*
X81274801Y-116863653D01*
X81262386Y-116879659D01*
X81259241Y-116886928D01*
X81259238Y-116886932D01*
X81244826Y-116920237D01*
X81239609Y-116930887D01*
X81218305Y-116969640D01*
X81216334Y-116977315D01*
X81216334Y-116977316D01*
X81213267Y-116989262D01*
X81206863Y-117007966D01*
X81198819Y-117026555D01*
X81197580Y-117034378D01*
X81197577Y-117034388D01*
X81191901Y-117070224D01*
X81189495Y-117081844D01*
X81180472Y-117116989D01*
X81178500Y-117124670D01*
X81178500Y-117144924D01*
X81176949Y-117164634D01*
X81173780Y-117184643D01*
X81174526Y-117192535D01*
X81177941Y-117228661D01*
X81178500Y-117240519D01*
X81178500Y-117823133D01*
X81177973Y-117834316D01*
X81176298Y-117841809D01*
X81176547Y-117849735D01*
X81176547Y-117849736D01*
X81178438Y-117909886D01*
X81178500Y-117913845D01*
X81178500Y-117941756D01*
X81178997Y-117945690D01*
X81178997Y-117945691D01*
X81179005Y-117945756D01*
X81179938Y-117957593D01*
X81181327Y-118001789D01*
X81185205Y-118015137D01*
X81186978Y-118021239D01*
X81190987Y-118040600D01*
X81193526Y-118060697D01*
X81196445Y-118068068D01*
X81196445Y-118068070D01*
X81209804Y-118101812D01*
X81213649Y-118113042D01*
X81223083Y-118145516D01*
X81225982Y-118155493D01*
X81230015Y-118162312D01*
X81230017Y-118162317D01*
X81236293Y-118172928D01*
X81244988Y-118190676D01*
X81252448Y-118209517D01*
X81257110Y-118215933D01*
X81257110Y-118215934D01*
X81278436Y-118245287D01*
X81284952Y-118255207D01*
X81307458Y-118293262D01*
X81321779Y-118307583D01*
X81334619Y-118322616D01*
X81346528Y-118339007D01*
X81352634Y-118344058D01*
X81380605Y-118367198D01*
X81389384Y-118375188D01*
X82876995Y-119862799D01*
X82911021Y-119925111D01*
X82913900Y-119951894D01*
X82913900Y-120344506D01*
X82893898Y-120412627D01*
X82840242Y-120459120D01*
X82769968Y-120469224D01*
X82705388Y-120439730D01*
X82698805Y-120433601D01*
X80803370Y-118538165D01*
X78822952Y-116557747D01*
X78815412Y-116549461D01*
X78811300Y-116542982D01*
X78761648Y-116496356D01*
X78758807Y-116493602D01*
X78739070Y-116473865D01*
X78735873Y-116471385D01*
X78726851Y-116463680D01*
X78694621Y-116433414D01*
X78687675Y-116429595D01*
X78687672Y-116429593D01*
X78676866Y-116423652D01*
X78660347Y-116412801D01*
X78659883Y-116412441D01*
X78644341Y-116400386D01*
X78637072Y-116397241D01*
X78637068Y-116397238D01*
X78603763Y-116382826D01*
X78593113Y-116377609D01*
X78554360Y-116356305D01*
X78534737Y-116351267D01*
X78516034Y-116344863D01*
X78504720Y-116339967D01*
X78504719Y-116339967D01*
X78497445Y-116336819D01*
X78489622Y-116335580D01*
X78489612Y-116335577D01*
X78453776Y-116329901D01*
X78442156Y-116327495D01*
X78407011Y-116318472D01*
X78407010Y-116318472D01*
X78399330Y-116316500D01*
X78379076Y-116316500D01*
X78359365Y-116314949D01*
X78347186Y-116313020D01*
X78339357Y-116311780D01*
X78331465Y-116312526D01*
X78295339Y-116315941D01*
X78283481Y-116316500D01*
X77871400Y-116316500D01*
X77803279Y-116296498D01*
X77756786Y-116242842D01*
X77745400Y-116190500D01*
X77745400Y-116051866D01*
X77738645Y-115989684D01*
X77687515Y-115853295D01*
X77600161Y-115736739D01*
X77483605Y-115649385D01*
X77347216Y-115598255D01*
X77285034Y-115591500D01*
X75488766Y-115591500D01*
X75426584Y-115598255D01*
X75290195Y-115649385D01*
X75173639Y-115736739D01*
X75086285Y-115853295D01*
X75083133Y-115861703D01*
X75041819Y-115971907D01*
X74999177Y-116028671D01*
X74932616Y-116053371D01*
X74863267Y-116038163D01*
X74830643Y-116012476D01*
X74780051Y-115956875D01*
X74780042Y-115956866D01*
X74776570Y-115953051D01*
X74772519Y-115949852D01*
X74772515Y-115949848D01*
X74605314Y-115817800D01*
X74605310Y-115817798D01*
X74601259Y-115814598D01*
X74568907Y-115796739D01*
X74518936Y-115746307D01*
X74503862Y-115690388D01*
X74502712Y-115653789D01*
X74502712Y-115653788D01*
X74502463Y-115645869D01*
X74496479Y-115625271D01*
X74492471Y-115605918D01*
X74491572Y-115598806D01*
X74489782Y-115584636D01*
X74472775Y-115541682D01*
X74468929Y-115530447D01*
X74458258Y-115493716D01*
X74458257Y-115493713D01*
X74456045Y-115486100D01*
X74445125Y-115467635D01*
X74436434Y-115449895D01*
X74428535Y-115429944D01*
X74401382Y-115392571D01*
X74394867Y-115382652D01*
X74375393Y-115349723D01*
X74375390Y-115349719D01*
X74371353Y-115342893D01*
X74356189Y-115327729D01*
X74343348Y-115312695D01*
X74335401Y-115301757D01*
X74330741Y-115295343D01*
X74295147Y-115265897D01*
X74286368Y-115257908D01*
X73342005Y-114313545D01*
X73307979Y-114251233D01*
X73305100Y-114224450D01*
X73305100Y-111793965D01*
X73325102Y-111725844D01*
X73378758Y-111679351D01*
X73449032Y-111669247D01*
X73466253Y-111672968D01*
X73471795Y-111674578D01*
X73575150Y-111695606D01*
X73589199Y-111694410D01*
X73592900Y-111684065D01*
X73592900Y-111683517D01*
X74100900Y-111683517D01*
X74104964Y-111697359D01*
X74118378Y-111699393D01*
X74125084Y-111698534D01*
X74135162Y-111696392D01*
X74339155Y-111635191D01*
X74348742Y-111631433D01*
X74539995Y-111537739D01*
X74548845Y-111532464D01*
X74722228Y-111408792D01*
X74730100Y-111402139D01*
X74880952Y-111251812D01*
X74887630Y-111243965D01*
X75011903Y-111071020D01*
X75017213Y-111062183D01*
X75111570Y-110871267D01*
X75115369Y-110861672D01*
X75177277Y-110657910D01*
X75179455Y-110647837D01*
X75180886Y-110636962D01*
X75178675Y-110622778D01*
X75165517Y-110619000D01*
X74119015Y-110619000D01*
X74103776Y-110623475D01*
X74102571Y-110624865D01*
X74100900Y-110632548D01*
X74100900Y-111683517D01*
X73592900Y-111683517D01*
X73592900Y-110237000D01*
X73612902Y-110168879D01*
X73666558Y-110122386D01*
X73718900Y-110111000D01*
X75165244Y-110111000D01*
X75178775Y-110107027D01*
X75180080Y-110097947D01*
X75138114Y-109930875D01*
X75134794Y-109921124D01*
X75049872Y-109725814D01*
X75045005Y-109716739D01*
X74929326Y-109537926D01*
X74923036Y-109529757D01*
X74779193Y-109371677D01*
X74748141Y-109307831D01*
X74756535Y-109237333D01*
X74801712Y-109182564D01*
X74828156Y-109168895D01*
X74935197Y-109128767D01*
X74943605Y-109125615D01*
X75060161Y-109038261D01*
X75147515Y-108921705D01*
X75198645Y-108785316D01*
X75205400Y-108723134D01*
X75205400Y-106926866D01*
X75198645Y-106864684D01*
X75147515Y-106728295D01*
X75060161Y-106611739D01*
X74943605Y-106524385D01*
X74807216Y-106473255D01*
X74745034Y-106466500D01*
X72948766Y-106466500D01*
X72886584Y-106473255D01*
X72750195Y-106524385D01*
X72633639Y-106611739D01*
X72546285Y-106728295D01*
X72495155Y-106864684D01*
X72488400Y-106926866D01*
X72488400Y-108723134D01*
X72495155Y-108785316D01*
X72497927Y-108792712D01*
X72497929Y-108792718D01*
X72544461Y-108916842D01*
X72549644Y-108987649D01*
X72515574Y-109050166D01*
X72238995Y-109326745D01*
X72230215Y-109334735D01*
X72230213Y-109334737D01*
X72223520Y-109338984D01*
X72218094Y-109344762D01*
X72218093Y-109344763D01*
X72174996Y-109390657D01*
X72172241Y-109393499D01*
X72151673Y-109414067D01*
X72148956Y-109417570D01*
X72141248Y-109426595D01*
X72109628Y-109460267D01*
X72105807Y-109467218D01*
X72105806Y-109467219D01*
X72099297Y-109479058D01*
X72088443Y-109495582D01*
X72082014Y-109503871D01*
X72075296Y-109512532D01*
X72072149Y-109519804D01*
X72072148Y-109519806D01*
X72056946Y-109554935D01*
X72051724Y-109565595D01*
X72029476Y-109606063D01*
X72024141Y-109626841D01*
X72017742Y-109645531D01*
X72009220Y-109665224D01*
X72002287Y-109708996D01*
X72001994Y-109710848D01*
X71999587Y-109722471D01*
X71988100Y-109767212D01*
X71988100Y-109788659D01*
X71986549Y-109808369D01*
X71983194Y-109829552D01*
X71008000Y-109829552D01*
X71008000Y-104644669D01*
X82012001Y-104644669D01*
X82012371Y-104651490D01*
X82017895Y-104702352D01*
X82021521Y-104717604D01*
X82066676Y-104838054D01*
X82075214Y-104853649D01*
X82151715Y-104955724D01*
X82164276Y-104968285D01*
X82266351Y-105044786D01*
X82281946Y-105053324D01*
X82402394Y-105098478D01*
X82417649Y-105102105D01*
X82468514Y-105107631D01*
X82475328Y-105108000D01*
X83097885Y-105108000D01*
X83113124Y-105103525D01*
X83114329Y-105102135D01*
X83116000Y-105094452D01*
X83116000Y-104022115D01*
X83111525Y-104006876D01*
X83110135Y-104005671D01*
X83102452Y-104004000D01*
X82030116Y-104004000D01*
X82014877Y-104008475D01*
X82013672Y-104009865D01*
X82012001Y-104017548D01*
X82012001Y-104644669D01*
X71008000Y-104644669D01*
X71008000Y-103477885D01*
X82012000Y-103477885D01*
X82016475Y-103493124D01*
X82017865Y-103494329D01*
X82025548Y-103496000D01*
X83097885Y-103496000D01*
X83113124Y-103491525D01*
X83114329Y-103490135D01*
X83116000Y-103482452D01*
X83116000Y-102410116D01*
X83111525Y-102394877D01*
X83110135Y-102393672D01*
X83102452Y-102392001D01*
X82475331Y-102392001D01*
X82468510Y-102392371D01*
X82417648Y-102397895D01*
X82402396Y-102401521D01*
X82281946Y-102446676D01*
X82266351Y-102455214D01*
X82164276Y-102531715D01*
X82151715Y-102544276D01*
X82075214Y-102646351D01*
X82066676Y-102661946D01*
X82021522Y-102782394D01*
X82017895Y-102797649D01*
X82012369Y-102848514D01*
X82012000Y-102855328D01*
X82012000Y-103477885D01*
X71008000Y-103477885D01*
X71008000Y-102885715D01*
X71028002Y-102817594D01*
X71081658Y-102771101D01*
X71151932Y-102760997D01*
X71199833Y-102778281D01*
X71313265Y-102847793D01*
X71317835Y-102849686D01*
X71317837Y-102849687D01*
X71527988Y-102936734D01*
X71532561Y-102938628D01*
X71613660Y-102958098D01*
X71758554Y-102992885D01*
X71758560Y-102992886D01*
X71763367Y-102994040D01*
X72000000Y-103012663D01*
X72236633Y-102994040D01*
X72241440Y-102992886D01*
X72241446Y-102992885D01*
X72386340Y-102958098D01*
X72467439Y-102938628D01*
X72472012Y-102936734D01*
X72682163Y-102849687D01*
X72682165Y-102849686D01*
X72686735Y-102847793D01*
X72889121Y-102723770D01*
X73034491Y-102599612D01*
X73065858Y-102572822D01*
X73069614Y-102569614D01*
X73142619Y-102484137D01*
X73220557Y-102392883D01*
X73223770Y-102389121D01*
X73347793Y-102186735D01*
X73430018Y-101988227D01*
X73436734Y-101972012D01*
X73436735Y-101972010D01*
X73438628Y-101967439D01*
X73462796Y-101866774D01*
X73492885Y-101741446D01*
X73492886Y-101741440D01*
X73494040Y-101736633D01*
X73512663Y-101500000D01*
X73494040Y-101263367D01*
X73492886Y-101258560D01*
X73492885Y-101258554D01*
X73458098Y-101113660D01*
X73438628Y-101032561D01*
X73425141Y-101000001D01*
X73349687Y-100817837D01*
X73349686Y-100817835D01*
X73347793Y-100813265D01*
X73278282Y-100699833D01*
X73259744Y-100631301D01*
X73281200Y-100563625D01*
X73335840Y-100518292D01*
X73385715Y-100508000D01*
X111114285Y-100508000D01*
X111182406Y-100528002D01*
G37*
%TD.AperFunction*%
%TD*%
M02*
