M48
; DRILL file {KiCad (6.0.1)} date Sun Jun  5 18:08:29 2022
; FORMAT={-:-/ absolute / metric / decimal}
; #@! TF.CreationDate,2022-06-05T18:08:29-04:00
; #@! TF.GenerationSoftware,Kicad,Pcbnew,(6.0.1)
; #@! TF.FileFunction,Plated,1,2,PTH
FMAT,2
METRIC
; #@! TA.AperFunction,Plated,PTH,ViaDrill
T1C0.400
; #@! TA.AperFunction,Plated,PTH,ComponentDrill
T2C1.000
%
G90
G05
T1
X76.229Y-125.301
X78.853Y-118.532
X80.561Y-105.964
X82.571Y-117.482
X82.822Y-121.587
X83.099Y-113.663
X83.304Y-118.289
X83.582Y-116.431
X83.966Y-112.834
X85.694Y-120.78
X86.827Y-112.066
X87.963Y-117.25
X89.946Y-109.139
X92.922Y-116.306
X92.922Y-110.661
X100.119Y-111.884
X102.824Y-112.663
T2
X73.847Y-107.825
X73.847Y-110.365
X73.847Y-116.95
X73.847Y-119.49
X73.847Y-122.03
X76.387Y-116.95
X76.387Y-119.49
X76.387Y-122.03
X78.85Y-127.65
X81.39Y-127.65
X83.37Y-103.75
X83.93Y-127.65
X85.91Y-103.75
X86.47Y-127.65
X88.45Y-103.75
X89.01Y-127.65
X90.99Y-103.75
X91.55Y-127.65
X94.09Y-127.65
X96.63Y-127.65
X98.8Y-103.725
X99.17Y-127.65
X101.34Y-103.725
X103.88Y-103.725
X106.42Y-103.725
T0
M30
